<?xml version="1.0" encoding="UTF-8" standalone="no"?>
<!-- Created with Inkscape (http://www.inkscape.org/) -->

<svg
   xmlns:dc="http://purl.org/dc/elements/1.1/"
   xmlns:cc="http://creativecommons.org/ns#"
   xmlns:rdf="http://www.w3.org/1999/02/22-rdf-syntax-ns#"
   xmlns:svg="http://www.w3.org/2000/svg"
   xmlns="http://www.w3.org/2000/svg"
   xmlns:sodipodi="http://sodipodi.sourceforge.net/DTD/sodipodi-0.dtd"
   xmlns:inkscape="http://www.inkscape.org/namespaces/inkscape"
   width="210mm"
   height="297mm"
   viewBox="0 0 744.09448819 1052.3622047"
   id="svg2"
   version="1.1"
   inkscape:version="0.91 r13725"
   sodipodi:docname="drawing.svg">
  <defs
     id="defs4" />
  <sodipodi:namedview
     id="base"
     pagecolor="#ffffff"
     bordercolor="#666666"
     borderopacity="1.0"
     inkscape:pageopacity="0.0"
     inkscape:pageshadow="2"
     inkscape:zoom="1.4"
     inkscape:cx="186.34677"
     inkscape:cy="475.23293"
     inkscape:document-units="px"
     inkscape:current-layer="layer1"
     showgrid="false"
     inkscape:window-width="1366"
     inkscape:window-height="740"
     inkscape:window-x="0"
     inkscape:window-y="0"
     inkscape:window-maximized="1"
     inkscape:object-paths="true"
     inkscape:snap-bbox="true"
     inkscape:bbox-nodes="true" />
  <metadata
     id="metadata7">
    <rdf:RDF>
      <cc:Work
         rdf:about="">
        <dc:format>image/svg+xml</dc:format>
        <dc:type
           rdf:resource="http://purl.org/dc/dcmitype/StillImage" />
        <dc:title />
      </cc:Work>
    </rdf:RDF>
  </metadata>
  <g
     inkscape:label="Layer 1"
     inkscape:groupmode="layer"
     id="layer1">
    <path
       style="font-style:normal;font-variant:normal;font-weight:normal;font-stretch:normal;font-size:medium;line-height:125%;font-family:'Mr Headlines';-inkscape-font-specification:'Mr Headlines';letter-spacing:0px;word-spacing:0px;fill:#198fce;fill-opacity:1;stroke:none;stroke-width:1px;stroke-linecap:butt;stroke-linejoin:miter;stroke-opacity:1"
       d="m 201.34399,38.51872 0,81.73438 0.23437,0 0,39.96679 27.0625,0 0,-39.96679 20.57031,40.12304 30.34766,0 -19.86524,-41.29687 c 11.6279,-1.98144 17.44141,-10.0632 17.44141,-24.2461 l 0,-30.89453 c 0,-16.84219 -8.44746,-25.31563 -25.3418,-25.41992 z m 39.10937,13.17188 6.18555,18.99414 19.95898,0.004 -16.13672,11.76172 6.15235,18.97852 -16.16016,-11.70703 -16.16211,11.70703 6.15234,-18.97852 -16.13867,-11.76172 19.96094,-0.004 z"
       id="path4159"
       inkscape:connector-curvature="0" />
    <path
       id="path4174"
       d="m 202.85923,38.51872 0,81.73438 -0.23437,0 0,39.96679 -27.0625,0 0,-39.96679 -20.57031,40.12304 -30.34766,0 19.86524,-41.29687 c -11.6279,-1.98144 -17.44141,-10.0632 -17.44141,-24.2461 l 0,-30.89453 c 0,-16.84219 8.44746,-25.31563 25.3418,-25.41992 z m -39.10937,13.17188 -6.18555,18.99414 -19.95898,0.004 16.13672,11.76172 -6.15235,18.97852 16.16016,-11.70703 16.16211,11.70703 -6.15234,-18.97852 16.13867,-11.76172 -19.96094,-0.004 z"
       style="font-style:normal;font-variant:normal;font-weight:normal;font-stretch:normal;font-size:medium;line-height:125%;font-family:'Mr Headlines';-inkscape-font-specification:'Mr Headlines';letter-spacing:0px;word-spacing:0px;fill:#ec2227;fill-opacity:1;stroke:none;stroke-width:1px;stroke-linecap:butt;stroke-linejoin:miter;stroke-opacity:1"
       inkscape:connector-curvature="0" />
    <text
       xml:space="preserve"
       style="font-style:normal;font-weight:normal;font-size:40px;line-height:125%;font-family:sans-serif;letter-spacing:0px;word-spacing:0px;fill:#000000;fill-opacity:1;stroke:none;stroke-width:1px;stroke-linecap:butt;stroke-linejoin:miter;stroke-opacity:1"
       x="190.13376"
       y="120.16047"
       id="text4176"
       sodipodi:linespacing="125%"><tspan
         sodipodi:role="line"
         id="tspan4178"
         x="190.13376"
         y="120.16047"
         style="font-style:normal;font-variant:normal;font-weight:normal;font-stretch:normal;font-family:'Architects Daughter';-inkscape-font-specification:'Architects Daughter'">X</tspan></text>
    <text
       sodipodi:linespacing="125%"
       xml:space="preserve"
       style="font-style:normal;font-weight:normal;font-size:40px;line-height:125%;font-family:sans-serif;letter-spacing:0px;word-spacing:0px;fill:#000000;fill-opacity:1;stroke:none;stroke-width:1px;stroke-linecap:butt;stroke-linejoin:miter;stroke-opacity:1"
       x="44.534424"
       y="210.16052"
       id="text4143"><tspan
         sodipodi:role="line"
         id="tspan4145"
         x="44.534424"
         y="210.16052">racingxracing.com</tspan></text>
    <text
       id="text4179"
       y="513.2063"
       x="119.28571"
       style="font-style:normal;font-weight:normal;font-size:40px;line-height:125%;font-family:sans-serif;letter-spacing:0px;word-spacing:0px;fill:#000000;fill-opacity:1;stroke:none;stroke-width:1px;stroke-linecap:butt;stroke-linejoin:miter;stroke-opacity:1"
       xml:space="preserve"
       sodipodi:linespacing="125%"><tspan
         y="513.2063"
         x="119.28571"
         id="tspan4181"
         sodipodi:role="line"><tspan
   style="fill:#ec2227;fill-opacity:1"
   id="tspan4203">racing</tspan>x<tspan
   style="fill:#198fce;fill-opacity:1"
   id="tspan4201">racing.com</tspan></tspan></text>
    <path
       style="font-style:normal;font-variant:normal;font-weight:normal;font-stretch:normal;font-size:medium;line-height:125%;font-family:'Mr Headlines';-inkscape-font-specification:'Mr Headlines';letter-spacing:0px;word-spacing:0px;fill:#e6e6e6;fill-opacity:1;stroke:none;stroke-width:1px;stroke-linecap:butt;stroke-linejoin:miter;stroke-opacity:1"
       d="M 101.34375 614.23242 L 101.34375 675.49219 L 104.11719 678.84375 L 115.75781 665.05469 L 118.60938 667.35938 L 106.89062 681.26562 C 107.64583 682.28125 108.46614 683.19271 109.35156 684 C 110.23698 684.78125 111.12239 685.51041 112.00781 686.1875 C 112.91927 686.86458 113.79167 687.5026 114.625 688.10156 C 115.48437 688.70052 116.22656 689.3125 116.85156 689.9375 C 117.5026 690.5625 118.02344 691.22657 118.41406 691.92969 C 118.80469 692.60677 119 693.36198 119 694.19531 C 118.89583 694.95052 118.5573 695.45833 117.98438 695.71875 C 117.41146 695.97916 116.68229 695.77083 115.79688 695.09375 L 104.70312 684.89844 C 103.86979 685.60156 103.07552 686.52604 102.32031 687.67188 C 102.0004 688.15727 101.66834 688.63061 101.34375 689.11133 L 101.34375 695.9668 L 101.57812 695.9668 L 101.57812 735.93359 L 128.64062 735.93359 L 128.64062 695.9668 L 149.21094 736.08984 L 179.55859 736.08984 L 159.69336 694.79297 C 171.32126 692.81153 177.13477 684.72978 177.13477 670.54688 L 177.13477 639.65234 C 177.13477 622.81015 168.68731 614.33671 151.79297 614.23242 L 101.34375 614.23242 z M 140.45312 627.4043 L 146.63867 646.39844 L 166.59766 646.40234 L 150.46094 658.16406 L 156.61328 677.14258 L 140.45312 665.43555 L 124.29102 677.14258 L 130.44336 658.16406 L 114.30469 646.40234 L 134.26562 646.39844 L 140.45312 627.4043 z M 101.34375 681.41211 L 101.34375 681.88867 L 101.53906 681.65625 C 101.46252 681.56058 101.41924 681.50646 101.34375 681.41211 z "
       id="path4246"
       inkscape:export-filename="/home/ars/git/tamiya/evt/public/img/logo2.png"
       inkscape:export-xdpi="300"
       inkscape:export-ydpi="300" />
    <path
       style="font-style:normal;font-variant:normal;font-weight:normal;font-stretch:normal;font-size:medium;line-height:125%;font-family:'Mr Headlines';-inkscape-font-specification:'Mr Headlines';letter-spacing:0px;word-spacing:0px;fill:#cccccc;fill-opacity:1;stroke:none;stroke-width:1px;stroke-linecap:butt;stroke-linejoin:miter;stroke-opacity:1"
       d="M 52.410156 614.23242 C 35.515816 614.33671 27.068359 622.81015 27.068359 639.65234 L 27.068359 670.54688 C 27.068359 684.72978 32.881866 692.81153 44.509766 694.79297 L 24.644531 736.08984 L 54.992188 736.08984 L 75.5625 695.9668 L 75.5625 735.93359 L 102.625 735.93359 L 102.625 695.9668 L 102.85938 695.9668 L 102.85938 686.9043 C 102.67794 687.1487 102.49745 687.40311 102.32031 687.67188 C 101.56511 688.81771 100.79688 689.95052 100.01562 691.07031 C 99.260418 692.19011 98.466146 693.15365 97.632812 693.96094 C 96.799479 694.76823 95.875 695.17188 94.859375 695.17188 C 93.869792 695.17188 93.153646 695.01562 92.710938 694.70312 C 92.268229 694.39062 92.125 693.70052 92.28125 692.63281 L 101.53906 681.65625 C 99.872395 679.57292 98.453125 677.80208 97.28125 676.34375 C 96.135417 674.88542 95.184896 673.6875 94.429688 672.75 C 93.700521 671.78645 93.127604 671.04427 92.710938 670.52344 C 92.320312 670.0026 92.020833 669.61198 91.8125 669.35156 C 91.630209 669.09114 91.526042 668.93489 91.5 668.88281 C 91.47396 668.83075 91.460937 668.79169 91.460938 668.76562 C 91.460938 668.42709 91.578125 668.14062 91.8125 667.90625 C 92.072917 667.67187 92.372396 667.51562 92.710938 667.4375 C 93.075521 667.33333 93.440104 667.29427 93.804688 667.32031 C 94.169271 667.32031 94.481771 667.38542 94.742188 667.51562 L 102.85938 677.32422 L 102.85938 614.23242 L 52.410156 614.23242 z M 63.75 627.4043 L 69.9375 646.39844 L 89.898438 646.40234 L 73.759766 658.16406 L 79.912109 677.14258 L 63.75 665.43555 L 47.589844 677.14258 L 53.742188 658.16406 L 37.605469 646.40234 L 57.564453 646.39844 L 63.75 627.4043 z "
       id="path4248"
       inkscape:export-filename="/home/ars/git/tamiya/evt/public/img/logo2.png"
       inkscape:export-xdpi="300"
       inkscape:export-ydpi="300" />
  </g>
</svg>
