<?xml version="1.0" encoding="UTF-8" standalone="no"?>
<!-- Created with Inkscape (http://www.inkscape.org/) -->

<svg
   xmlns:dc="http://purl.org/dc/elements/1.1/"
   xmlns:cc="http://creativecommons.org/ns#"
   xmlns:rdf="http://www.w3.org/1999/02/22-rdf-syntax-ns#"
   xmlns:svg="http://www.w3.org/2000/svg"
   xmlns="http://www.w3.org/2000/svg"
   xmlns:sodipodi="http://sodipodi.sourceforge.net/DTD/sodipodi-0.dtd"
   xmlns:inkscape="http://www.inkscape.org/namespaces/inkscape"
   width="210mm"
   height="297mm"
   viewBox="0 0 744.09448819 1052.3622047"
   id="svg2"
   version="1.1"
   inkscape:version="0.92.0 r15299"
   sodipodi:docname="drawing.svg">
  <defs
     id="defs4" />
  <sodipodi:namedview
     id="base"
     pagecolor="#ffffff"
     bordercolor="#666666"
     borderopacity="1.0"
     inkscape:pageopacity="0.0"
     inkscape:pageshadow="2"
     inkscape:zoom="1.4"
     inkscape:cx="273.86242"
     inkscape:cy="475.80702"
     inkscape:document-units="px"
     inkscape:current-layer="layer1"
     showgrid="false"
     inkscape:window-width="1366"
     inkscape:window-height="740"
     inkscape:window-x="1366"
     inkscape:window-y="0"
     inkscape:window-maximized="1"
     inkscape:object-paths="true"
     inkscape:snap-bbox="true"
     inkscape:bbox-nodes="true" />
  <metadata
     id="metadata7">
    <rdf:RDF>
      <cc:Work
         rdf:about="">
        <dc:format>image/svg+xml</dc:format>
        <dc:type
           rdf:resource="http://purl.org/dc/dcmitype/StillImage" />
        <dc:title />
      </cc:Work>
    </rdf:RDF>
  </metadata>
  <g
     inkscape:label="Layer 1"
     inkscape:groupmode="layer"
     id="layer1">
    <rect
       style="fill:#198fce"
       x="191.15263"
       y="218.56046"
       width="99.556"
       height="94.676003"
       id="rect4198" />
    <polygon
       style="fill:#ffffff"
       points="193.414,104.815 162.745,82.601 132.081,104.815 143.757,68.806 113.132,46.488 151.011,46.481 162.745,10.444 174.486,46.481 212.362,46.488 181.736,68.806 "
       id="polygon4200"
       transform="translate(78.18064,208.27546)" />
    <rect
       style="fill:#ec2227"
       x="91.605637"
       y="218.56046"
       width="99.545998"
       height="94.676003"
       id="rect4202" />
    <polygon
       style="fill:#ffffff"
       points="93.863,104.815 63.199,82.601 32.534,104.815 44.21,68.806 13.586,46.488 51.462,46.481 63.199,10.444 74.937,46.481 112.807,46.488 82.189,68.806 "
       id="polygon4204"
       transform="translate(78.18064,208.27546)" />
    <path
       style="fill:#1d95d3"
       inkscape:connector-curvature="0"
       d="m 119.46164,354.73046 c 10.184,-0.009 19.125,-0.044 19.125,-0.044 l 0,-3.837 -3.556,-0.038 c -0.546,-0.029 -1.082,-0.022 -1.583,-0.136 -0.509,-0.188 -0.879,-0.785 -0.688,-1.499 0.446,-1.437 1.537,-4.528 1.537,-4.528 l 11.805,0 1.403,3.73 c 0.283,0.776 0.248,1.495 -0.241,1.99 -0.584,0.406 -1.111,0.37 -1.825,0.406 l -3.112,0.076 0,3.837 16.941,0 0.225,0 13.864,0 0,-3.857 -2.884,-0.056 c -1.04,-0.022 -1.597,-0.149 -2.11,-1.071 -0.188,-0.299 -0.299,-0.903 -0.299,-1.555 l 0,-19.709 0.076,-0.018 c 3.204,8.727 6.556,17.534 9.664,26.266 l 4.363,0 9.807,-26.266 0.103,0 0,19.727 c -0.014,0.294 0,0.674 -0.061,0.988 -0.31,1.445 -1.475,1.624 -2.617,1.642 l -2.57,0.072 0,3.837 17.086,0 0,-3.857 -1.917,-0.033 c -0.415,-0.036 -0.85,-0.087 -1.131,-0.185 -0.604,-0.283 -1.126,-0.837 -1.296,-1.475 -0.076,-0.299 -0.053,-0.691 -0.062,-0.995 -0.013,0.007 -0.004,-19.606 0.002,-19.985 0.007,-0.366 0.098,-0.734 0.196,-1.028 0.489,-1.312 1.31,-1.584 2.367,-1.662 l 1.941,-0.056 0,-3.873 -15.254,0.018 c 0,0 -5.064,13.853 -7.766,20.472 -2.779,-6.71 -5.151,-13.735 -7.873,-20.472 l -16.43,0 0,3.855 c 0,0 1.822,0.064 2.766,0.076 0.589,0.007 1.178,0.04 1.735,0.143 0.513,0.192 0.897,0.424 1.127,0.87 0.234,0.455 0.285,0.792 0.328,1.281 l 0,20.369 c -0.016,0.694 -0.071,0.955 -0.299,1.488 -0.31,0.634 -0.95,1.04 -1.615,1.12 l -1.24,0.018 -0.209,0 -0.957,0.011 c -1.098,-0.029 -2.09,-0.301 -2.541,-1.533 -3.647,-9.099 -7.134,-18.518 -10.659,-27.677 l -8.557,0 c -3.282,9.167 -6.445,18.587 -10.061,27.628 -0.623,1.267 -1.745,1.539 -2.965,1.584 -0.919,0.036 -2.768,0.042 -2.768,0.042 l -1.294,0 -0.228,0 -1.089,0 c -1.165,0.016 -2.182,-0.056 -2.182,-0.056 -0.872,-0.042 -1.202,-0.158 -1.957,-0.444 -0.865,-0.466 -1.474,-1.189 -1.474,-2.208 l -0.014,-20.565 0.031,-0.843 c 0.029,-0.542 0.35,-1.501 1.12,-1.707 1.86,-0.333 3.712,0.308 5.269,1.608 2.083,1.954 2.335,4.801 2.349,7.698 l 3.788,0 0,-12.738 -33.487,0 0.016,12.738 3.946,-0.024 c 0.021,-2.896 0.48,-5.775 2.559,-7.732 1.563,-1.298 3.732,-1.907 5.597,-1.58 0.957,0.339 1.223,0.998 1.294,1.696 0.009,0.281 0.016,0.58 0.02,0.861 l -0.004,20.713 c -0.016,0.997 -0.522,1.633 -1.229,2.083 -0.569,0.274 -1.031,0.431 -1.792,0.444 -1.684,0.007 -3.417,0.076 -3.417,0.076 l 0,3.837 c 5.667,0.042 13.414,0.053 20.583,0.044 l 0.28,0 z m 20.546,-27.153 -0.009,0.014 4.468,12.394 -8.633,0 4.174,-12.408 z"
       id="path4206" />
    <path
       style="fill:#1d95d3"
       inkscape:connector-curvature="0"
       d="m 291.81464,350.78647 c -1.102,-0.034 -2.09,-0.304 -2.541,-1.53501 -3.647,-9.09699 -7.132,-18.515 -10.659,-27.67899 l -8.555,0 c -3.284,9.17 -6.447,18.58699 -10.061,27.63299 -0.623,1.262 -1.747,1.537 -2.969,1.582 -0.283,0.013 -1.142,0.038 -1.523,0.044 l -5.095,0 c 0,0 -0.638,-0.036 -0.959,-0.058 -0.508,-0.071 -1.044,-0.189 -1.501,-0.44099 -0.462,-0.25901 -0.846,-0.763 -0.908,-1.794 -0.007,-0.29001 -0.042,-0.593 -0.051,-0.888 l 0,-6.96 c 0,0 6.347,-8.267 9.282,-11.89 1.392,-1.867 2.766,-3.409 5.648,-3.409 l 0,-3.834 -15.888,0 0,3.834 2.063,0.056 c 1.354,0.021 2.146,0.226 2.619,1.018 0.196,0.424 0.296,0.734 0.147,1.296 -0.114,0.319 -0.194,0.518 -0.453,0.832 -1.865,2.51 -2.612,3.525 -6.008,7.725 -3.729,-5.097 -5.534,-7.616 -5.811,-8.191 -0.169,-0.424 -0.384,-0.852 -0.245,-1.418 0.352,-1.053 1.363,-1.218 2.342,-1.247 0.83,-0.069 2.409,-0.107 2.409,-0.107 l 0,-3.79701 -35.16,0.016 0,3.819 1.243,0.056 c 0.77,0.021 1.033,0.038 1.503,0.154 0.919,0.314 1.147,0.711 1.39,1.18 0.265,0.471 0.285,0.754 0.359,1.372 l 0,19.997 c 0,0.33 0,0.874 -0.094,1.441 -0.419,1.004 -1.374,1.142 -2.389,1.223 l -1.898,0.036 0,3.837 17.182,0 0,-3.855 -2.608,-0.036 c -0.546,-0.022 -0.988,-0.024 -1.396,-0.174 -0.508,-0.196 -0.845,-0.451 -1.086,-1.015 -0.053,-0.183 -0.098,-0.239 -0.134,-0.451 -0.042,-0.256 -0.076,-0.676 -0.076,-1.006 l 0,-19.997 c 0.094,-0.618 0.116,-0.901 0.417,-1.408 0.328,-0.484 0.524,-0.676 1.086,-0.961 0.301,-0.12901 0.529,-0.281 1.318,-0.316 l 2.479,0 c 1.394,0.04 2.682,0.234 3.855,1.24 0.312,0.328 0.473,0.468 0.785,0.852 0.312,0.353 0.649,0.754 1.004,1.19099 l 8.968,12.256 0,6.683 c -0.014,0.335 -0.054,0.709 -0.076,0.975 -0.044,0.656 -0.156,1.211 -0.77,1.667 -0.649,0.353 -1.475,0.417 -2.5,0.441 -1.267,0.049 -3.683,0.076 -3.683,0.076 l 0,3.837 18.951,0 20.304,0 0,-3.837 -3.553,-0.036 c -0.549,-0.031 -1.084,-0.027 -1.584,-0.141 -0.509,-0.186 -0.881,-0.783 -0.687,-1.497 0.448,-1.437 1.537,-4.531 1.537,-4.531 l 11.841,0.002 1.358,3.779 c 0.283,0.776 0.286,1.448 -0.199,1.938 -0.584,0.408 -1.111,0.373 -1.829,0.408 l -3.141,0.076 0,3.837 18.294,0 0,-3.855 -2.294,-0.045 z m -22.491,-10.803 4.169,-12.406 4.45,12.406 -8.619,0 z"
       id="path4208" />
    <g
       id="g4543"
       inkscape:export-filename="/home/ars/git/tamiya/evt/public/img/logo.png"
       inkscape:export-xdpi="300"
       inkscape:export-ydpi="300">
      <g
         transform="translate(17.027921)"
         id="g4518">
        <path
           style="font-style:normal;font-variant:normal;font-weight:normal;font-stretch:normal;font-size:medium;line-height:125%;font-family:'Mr Headlines';-inkscape-font-specification:'Mr Headlines';letter-spacing:0px;word-spacing:0px;fill:#198fce;fill-opacity:1;stroke:none;stroke-width:1px;stroke-linecap:butt;stroke-linejoin:miter;stroke-opacity:1"
           d="m 259.06736,485.00614 v 81.73438 h 0.23437 v 39.96679 h 27.0625 v -39.96679 l 20.57031,40.12304 h 30.34766 l -19.86524,-41.29687 c 11.6279,-1.98144 17.44141,-10.0632 17.44141,-24.2461 v -30.89453 c 0,-16.84219 -8.44746,-25.31563 -25.3418,-25.41992 z m 39.10937,13.17188 6.18555,18.99414 19.95898,0.004 -16.13672,11.76172 6.15235,18.97852 -16.16016,-11.70703 -16.16211,11.70703 6.15234,-18.97852 -16.13867,-11.76172 19.96094,-0.004 z"
           id="path4159"
           inkscape:connector-curvature="0" />
        <path
           id="path4174"
           d="m 260.5826,485.00614 v 81.73438 h -0.23437 v 39.96679 h -27.0625 v -39.96679 l -20.57031,40.12304 H 182.36776 L 202.233,565.56669 c -11.6279,-1.98144 -17.44141,-10.0632 -17.44141,-24.2461 v -30.89453 c 0,-16.84219 8.44746,-25.31563 25.3418,-25.41992 z m -39.10937,13.17188 -6.18555,18.99414 -19.95898,0.004 16.13672,11.76172 -6.15235,18.97852 16.16016,-11.70703 16.16211,11.70703 -6.15234,-18.97852 16.13867,-11.76172 -19.96094,-0.004 z"
           style="font-style:normal;font-variant:normal;font-weight:normal;font-stretch:normal;font-size:medium;line-height:125%;font-family:'Mr Headlines';-inkscape-font-specification:'Mr Headlines';letter-spacing:0px;word-spacing:0px;fill:#ec2227;fill-opacity:1;stroke:none;stroke-width:1px;stroke-linecap:butt;stroke-linejoin:miter;stroke-opacity:1"
           inkscape:connector-curvature="0" />
        <text
           xml:space="preserve"
           style="font-style:normal;font-weight:normal;font-size:40px;line-height:125%;font-family:sans-serif;letter-spacing:0px;word-spacing:0px;fill:#000000;fill-opacity:1;stroke:none;stroke-width:1px;stroke-linecap:butt;stroke-linejoin:miter;stroke-opacity:1"
           x="247.85713"
           y="566.64789"
           id="text4176"><tspan
             sodipodi:role="line"
             id="tspan4178"
             x="247.85713"
             y="566.64789"
             style="font-style:normal;font-variant:normal;font-weight:normal;font-stretch:normal;font-family:'Architects Daughter';-inkscape-font-specification:'Architects Daughter'">X</tspan></text>
      </g>
      <text
         id="text4143"
         y="656.64795"
         x="119.28571"
         style="font-style:normal;font-weight:normal;font-size:40px;line-height:125%;font-family:sans-serif;letter-spacing:0px;word-spacing:0px;fill:#000000;fill-opacity:1;stroke:none;stroke-width:1px;stroke-linecap:butt;stroke-linejoin:miter;stroke-opacity:1"
         xml:space="preserve"><tspan
           y="656.64795"
           x="119.28571"
           id="tspan4145"
           sodipodi:role="line">racingxracing.com</tspan></text>
    </g>
    <g
       style="font-style:normal;font-weight:normal;font-size:40px;line-height:125%;font-family:sans-serif;letter-spacing:0px;word-spacing:0px;fill:#000000;fill-opacity:1;stroke:none;stroke-width:1px;stroke-linecap:butt;stroke-linejoin:miter;stroke-opacity:1"
       id="text4166"
       transform="translate(-1.7857147,-0.71428571)">
      <path
         d="m 73.537949,435.00729 q 0,0.39063 -0.3125,0.58594 -0.273438,0.19531 -0.664063,0.27344 -0.351562,0.0781 -0.703125,0.0781 -0.351562,0 -0.507812,0 -1.015625,0 -1.484375,-1.01562 -0.46875,-1.01563 -0.625,-2.89063 -0.117188,-1.91406 -0.07813,-4.57031 0.07813,-2.65625 0.117187,-5.89844 0.07813,-3.24218 -0.03906,-6.99218 -0.07813,-3.78907 -0.546875,-7.92969 0.46875,-0.82031 0.976562,-0.89844 0.546875,-0.0781 1.015625,0.23438 0.46875,0.3125 0.859375,0.82031 0.390625,0.50781 0.625,0.85937 1.210938,-1.17187 3.359375,-1.75781 2.148438,-0.625 4.648438,-0.78125 2.539062,-0.15625 5.15625,0.15625 2.617187,0.27344 4.765625,0.89844 2.148437,0.625 3.554687,1.5625 1.445313,0.9375 1.5625,2.10937 0.15625,1.17188 -1.25,2.53907 -1.40625,1.36718 -4.960937,2.85156 -0.546875,0.23437 -1.679688,0.66406 -1.132812,0.39063 -2.578125,0.89844 -1.445312,0.46875 -3.007812,1.01562 -1.523438,0.54688 -2.929688,1.09375 -1.40625,0.50782 -2.460937,0.97657 -1.054688,0.42968 -1.484375,0.74218 0,0.23438 0.195312,0.42969 0.195313,0.15625 0.898438,0.58594 0.742187,0.39062 2.226562,1.17187 1.484375,0.78125 4.0625,2.1875 2.578125,1.40625 6.445313,3.59375 3.867187,2.14844 9.414062,5.35157 0.195313,0.15625 0.46875,0.35156 0.3125,0.19531 0.546875,0.46875 0.273438,0.27344 0.46875,0.58594 0.195313,0.27343 0.195313,0.625 0,0.50781 -0.390625,0.74218 -0.390625,0.27344 -0.9375,0.39063 -0.546875,0.11719 -1.132813,0.11719 -0.585937,0 -0.976562,0 -0.585938,0 -1.992188,-0.82032 -1.367187,-0.82031 -3.28125,-2.07031 -1.914062,-1.28906 -4.179687,-2.85156 -2.265625,-1.5625 -4.609375,-3.04688 -2.34375,-1.52343 -4.609375,-2.73437 -2.265625,-1.25 -4.140625,-1.91406 l 0,11.21093 z m -0.703125,-24.29687 q -0.351563,0.54687 -0.46875,1.48437 -0.07813,0.89844 0.03906,1.875 0.15625,0.97657 0.429688,1.83594 0.3125,0.85938 0.703125,1.25 0.429687,0.15625 1.640625,-0.0781 1.25,-0.27344 2.929687,-0.78125 1.679688,-0.50782 3.59375,-1.21094 1.914063,-0.74219 3.632813,-1.52344 1.757812,-0.82031 3.125,-1.64062 1.40625,-0.82032 1.992187,-1.52344 0.625,-0.74219 0.273438,-1.28906 -0.3125,-0.58594 -2.03125,-0.89844 -0.859375,0 -2.265625,0 -1.367188,-0.0391 -2.96875,0 -1.5625,0.0391 -3.242188,0.15625 -1.679687,0.11719 -3.164062,0.42969 -1.445313,0.27343 -2.578125,0.74218 -1.132813,0.46875 -1.640625,1.17188 z"
         style="font-style:normal;font-variant:normal;font-weight:normal;font-stretch:normal;font-family:'Architects Daughter';-inkscape-font-specification:'Architects Daughter';fill:#000000;fill-opacity:1"
         id="path4171"
         inkscape:connector-curvature="0" />
    </g>
    <g
       id="g4173"
       style="font-style:normal;font-weight:normal;font-size:40px;line-height:125%;font-family:sans-serif;letter-spacing:0px;word-spacing:0px;fill:#000000;fill-opacity:1;stroke:none;stroke-width:1px;stroke-linecap:butt;stroke-linejoin:miter;stroke-opacity:1"
       transform="matrix(-1,0,0,1,140.24551,-0.71428572)">
      <path
         id="path4175"
         style="font-style:normal;font-variant:normal;font-weight:normal;font-stretch:normal;font-family:'Architects Daughter';-inkscape-font-specification:'Architects Daughter';fill:#000000;fill-opacity:1"
         d="m 73.537949,435.00729 q 0,0.39063 -0.3125,0.58594 -0.273438,0.19531 -0.664063,0.27344 -0.351562,0.0781 -0.703125,0.0781 -0.351562,0 -0.507812,0 -1.015625,0 -1.484375,-1.01562 -0.46875,-1.01563 -0.625,-2.89063 -0.117188,-1.91406 -0.07813,-4.57031 0.07813,-2.65625 0.117187,-5.89844 0.07813,-3.24218 -0.03906,-6.99218 -0.07813,-3.78907 -0.546875,-7.92969 0.46875,-0.82031 0.976562,-0.89844 0.546875,-0.0781 1.015625,0.23438 0.46875,0.3125 0.859375,0.82031 0.390625,0.50781 0.625,0.85937 1.210938,-1.17187 3.359375,-1.75781 2.148438,-0.625 4.648438,-0.78125 2.539062,-0.15625 5.15625,0.15625 2.617187,0.27344 4.765625,0.89844 2.148437,0.625 3.554687,1.5625 1.445313,0.9375 1.5625,2.10937 0.15625,1.17188 -1.25,2.53907 -1.40625,1.36718 -4.960937,2.85156 -0.546875,0.23437 -1.679688,0.66406 -1.132812,0.39063 -2.578125,0.89844 -1.445312,0.46875 -3.007812,1.01562 -1.523438,0.54688 -2.929688,1.09375 -1.40625,0.50782 -2.460937,0.97657 -1.054688,0.42968 -1.484375,0.74218 0,0.23438 0.195312,0.42969 0.195313,0.15625 0.898438,0.58594 0.742187,0.39062 2.226562,1.17187 1.484375,0.78125 4.0625,2.1875 2.578125,1.40625 6.445313,3.59375 3.867187,2.14844 9.414062,5.35157 0.195313,0.15625 0.46875,0.35156 0.3125,0.19531 0.546875,0.46875 0.273438,0.27344 0.46875,0.58594 0.195313,0.27343 0.195313,0.625 0,0.50781 -0.390625,0.74218 -0.390625,0.27344 -0.9375,0.39063 -0.546875,0.11719 -1.132813,0.11719 -0.585937,0 -0.976562,0 -0.585938,0 -1.992188,-0.82032 -1.367187,-0.82031 -3.28125,-2.07031 -1.914062,-1.28906 -4.179687,-2.85156 -2.265625,-1.5625 -4.609375,-3.04688 -2.34375,-1.52343 -4.609375,-2.73437 -2.265625,-1.25 -4.140625,-1.91406 l 0,11.21093 z m -0.703125,-24.29687 q -0.351563,0.54687 -0.46875,1.48437 -0.07813,0.89844 0.03906,1.875 0.15625,0.97657 0.429688,1.83594 0.3125,0.85938 0.703125,1.25 0.429687,0.15625 1.640625,-0.0781 1.25,-0.27344 2.929687,-0.78125 1.679688,-0.50782 3.59375,-1.21094 1.914063,-0.74219 3.632813,-1.52344 1.757812,-0.82031 3.125,-1.64062 1.40625,-0.82032 1.992187,-1.52344 0.625,-0.74219 0.273438,-1.28906 -0.3125,-0.58594 -2.03125,-0.89844 -0.859375,0 -2.265625,0 -1.367188,-0.0391 -2.96875,0 -1.5625,0.0391 -3.242188,0.15625 -1.679687,0.11719 -3.164062,0.42969 -1.445313,0.27343 -2.578125,0.74218 -1.132813,0.46875 -1.640625,1.17188 z"
         inkscape:connector-curvature="0" />
    </g>
    <g
       id="g4299"
       transform="translate(-100.7731,-22.996461)"
       inkscape:export-filename="/home/ars/git/tamiya/evt/public/img/logo.png"
       inkscape:export-xdpi="139.532"
       inkscape:export-ydpi="139.532">
      <g
         id="g4283">
        <rect
           transform="matrix(0,1,-1,0,0,0)"
           y="-434.07751"
           x="818.5108"
           height="200"
           width="100"
           id="rect4235"
           style="opacity:1;fill:#000000;fill-opacity:1;fill-rule:nonzero;stroke:none;stroke-width:2;stroke-linecap:square;stroke-linejoin:round;stroke-miterlimit:4;stroke-dasharray:none;stroke-opacity:0.51063831" />
        <rect
           style="opacity:1;fill:#ffd42a;fill-opacity:1;fill-rule:nonzero;stroke:none;stroke-width:2;stroke-linecap:square;stroke-linejoin:round;stroke-miterlimit:4;stroke-dasharray:none;stroke-opacity:0.51063831"
           id="rect4213"
           width="100"
           height="200"
           x="718.5108"
           y="-434.07751"
           transform="matrix(0,1,-1,0,0,0)" />
      </g>
      <path
         id="path4274"
         d="m 251.85156,796.31836 a 4.1106758,1.0566685 0 0 0 -2.86523,1.8125 l 79.27734,20.37891 -0.008,0.002 11.64258,0 -0.008,-0.002 79.2793,-20.37891 a 4.1106758,1.0566685 0 0 0 -2.98828,-1.8125 4.1106758,1.0566685 0 0 0 -2.82617,0.31836 l -79.27539,20.3789 -79.2793,-20.3789 a 4.1106758,1.0566685 0 0 0 -2.94922,-0.31836 z"
         style="color:#000000;font-style:normal;font-variant:normal;font-weight:normal;font-stretch:normal;font-size:medium;line-height:normal;font-family:sans-serif;text-indent:0;text-align:start;text-decoration:none;text-decoration-line:none;text-decoration-style:solid;text-decoration-color:#000000;letter-spacing:normal;word-spacing:normal;text-transform:none;direction:ltr;block-progression:tb;writing-mode:lr-tb;baseline-shift:baseline;text-anchor:start;white-space:normal;clip-rule:nonzero;display:inline;overflow:visible;visibility:visible;opacity:1;isolation:auto;mix-blend-mode:normal;color-interpolation:sRGB;color-interpolation-filters:linearRGB;solid-color:#000000;solid-opacity:1;fill:#000000;fill-opacity:1;fill-rule:evenodd;stroke:none;stroke-width:10;stroke-linecap:round;stroke-linejoin:bevel;stroke-miterlimit:4;stroke-dasharray:none;stroke-dashoffset:0;stroke-opacity:1;color-rendering:auto;image-rendering:auto;shape-rendering:auto;text-rendering:auto;enable-background:accumulate"
         inkscape:connector-curvature="0" />
      <text
         id="text4149"
         y="795.16431"
         x="243.28581"
         style="font-style:normal;font-weight:normal;font-size:59.99694824px;line-height:125%;font-family:sans-serif;letter-spacing:0px;word-spacing:0px;fill:#000000;fill-opacity:1;stroke:none;stroke-width:2;stroke-linecap:butt;stroke-linejoin:miter;stroke-miterlimit:4;stroke-dasharray:none;stroke-opacity:1"
         xml:space="preserve"><tspan
           style="font-style:normal;font-variant:normal;font-weight:normal;font-stretch:normal;font-family:Bebas;-inkscape-font-specification:Bebas;fill:#000000;fill-opacity:1;stroke:none;stroke-width:2;stroke-miterlimit:4;stroke-dasharray:none"
           y="795.16431"
           x="243.28581"
           id="tspan4151"
           sodipodi:role="line">Racing</tspan></text>
      <text
         transform="scale(-1,-1)"
         xml:space="preserve"
         style="font-style:normal;font-weight:normal;font-size:59.99694824px;line-height:125%;font-family:sans-serif;letter-spacing:0px;word-spacing:0px;fill:#ffd42a;fill-opacity:1;stroke:none;stroke-width:2;stroke-linecap:butt;stroke-linejoin:miter;stroke-miterlimit:4;stroke-dasharray:none;stroke-opacity:1"
         x="-424.86923"
         y="-841.8573"
         id="text4153"><tspan
           sodipodi:role="line"
           id="tspan4155"
           x="-424.86923"
           y="-841.8573"
           style="font-style:normal;font-variant:normal;font-weight:normal;font-stretch:normal;font-family:Bebas;-inkscape-font-specification:Bebas;fill:#ffd42a;fill-opacity:1;stroke:none;stroke-width:2;stroke-miterlimit:4;stroke-dasharray:none">Racing</tspan></text>
      <path
         inkscape:connector-curvature="0"
         id="path4287"
         d="m 328.29129,818.51172 -79.31055,20.38867 a 4.1109653,1.0567429 0 1 0 5.81446,1.49414 l 79.32031,-20.38867 79.31836,20.38867 a 4.1109608,1.0567417 0 1 0 5.8125,-1.49414 l -79.3125,-20.38867 -11.64258,0 z"
         style="color:#000000;font-style:normal;font-variant:normal;font-weight:normal;font-stretch:normal;font-size:medium;line-height:normal;font-family:sans-serif;text-indent:0;text-align:start;text-decoration:none;text-decoration-line:none;text-decoration-style:solid;text-decoration-color:#000000;letter-spacing:normal;word-spacing:normal;text-transform:none;direction:ltr;block-progression:tb;writing-mode:lr-tb;baseline-shift:baseline;text-anchor:start;white-space:normal;clip-rule:nonzero;display:inline;overflow:visible;visibility:visible;opacity:1;isolation:auto;mix-blend-mode:normal;color-interpolation:sRGB;color-interpolation-filters:linearRGB;solid-color:#000000;solid-opacity:1;fill:#ffd42a;fill-opacity:1;fill-rule:evenodd;stroke:none;stroke-width:10;stroke-linecap:round;stroke-linejoin:bevel;stroke-miterlimit:4;stroke-dasharray:none;stroke-dashoffset:0;stroke-opacity:1;color-rendering:auto;image-rendering:auto;shape-rendering:auto;text-rendering:auto;enable-background:accumulate" />
    </g>
    <text
       id="text4320"
       y="969.14417"
       x="443.27753"
       style="font-style:normal;font-weight:normal;font-size:59.99694824px;line-height:125%;font-family:sans-serif;letter-spacing:0px;word-spacing:0px;fill:#000000;fill-opacity:1;stroke:none;stroke-width:2;stroke-linecap:butt;stroke-linejoin:miter;stroke-miterlimit:4;stroke-dasharray:none;stroke-opacity:1"
       xml:space="preserve"
       inkscape:export-filename="/home/ars/git/tamiya/evt/public/img/logo.png"
       inkscape:export-xdpi="299.93106"
       inkscape:export-ydpi="299.93106"><tspan
         style="font-style:normal;font-variant:normal;font-weight:normal;font-stretch:normal;font-family:Bebas;-inkscape-font-specification:Bebas;fill:#000000;fill-opacity:1;stroke:none;stroke-width:2;stroke-miterlimit:4;stroke-dasharray:none"
         y="969.14417"
         x="443.27753"
         id="tspan4322"
         sodipodi:role="line">Racing</tspan></text>
    <text
       transform="scale(-1,-1)"
       xml:space="preserve"
       style="font-style:normal;font-weight:normal;font-size:59.99694824px;line-height:125%;font-family:sans-serif;letter-spacing:0px;word-spacing:0px;fill:#ffd42a;fill-opacity:1;stroke:none;stroke-width:2;stroke-linecap:butt;stroke-linejoin:miter;stroke-miterlimit:4;stroke-dasharray:none;stroke-opacity:1"
       x="-657.57098"
       y="-969.19153"
       id="text4324"
       inkscape:export-filename="/home/ars/git/tamiya/evt/public/img/logo.png"
       inkscape:export-xdpi="299.93106"
       inkscape:export-ydpi="299.93106"><tspan
         sodipodi:role="line"
         id="tspan4326"
         x="-657.57098"
         y="-969.19153"
         style="font-style:normal;font-variant:normal;font-weight:normal;font-stretch:normal;font-family:Bebas;-inkscape-font-specification:Bebas;fill:#ffd42a;fill-opacity:1;stroke:none;stroke-width:2;stroke-miterlimit:4;stroke-dasharray:none">Racing</tspan></text>
    <path
       style="fill:#ffd42a;fill-opacity:1;fill-rule:evenodd;stroke:none;stroke-width:1px;stroke-linecap:butt;stroke-linejoin:miter;stroke-opacity:1"
       d="m 654.80124,960.61225 c -2.52538,0 -24.74873,0 -24.74873,0 l 0,-45.45682 z"
       id="path4349"
       inkscape:connector-curvature="0"
       inkscape:export-filename="/home/ars/git/tamiya/evt/public/img/logo.png"
       inkscape:export-xdpi="299.93106"
       inkscape:export-ydpi="299.93106" />
    <path
       inkscape:connector-curvature="0"
       id="path4351"
       d="m 446.04727,977.72345 c 2.52537,0 24.74877,0 24.74877,0 l 0,45.45685 z"
       style="fill:#000000;fill-opacity:1;fill-rule:evenodd;stroke:none;stroke-width:1px;stroke-linecap:butt;stroke-linejoin:miter;stroke-opacity:1"
       inkscape:export-filename="/home/ars/git/tamiya/evt/public/img/logo.png"
       inkscape:export-xdpi="299.93106"
       inkscape:export-ydpi="299.93106" />
  </g>
</svg>
