<?xml version="1.0" encoding="UTF-8" standalone="no"?>
<!-- Created with Inkscape (http://www.inkscape.org/) -->

<svg
   xmlns:dc="http://purl.org/dc/elements/1.1/"
   xmlns:cc="http://creativecommons.org/ns#"
   xmlns:rdf="http://www.w3.org/1999/02/22-rdf-syntax-ns#"
   xmlns:svg="http://www.w3.org/2000/svg"
   xmlns="http://www.w3.org/2000/svg"
   xmlns:sodipodi="http://sodipodi.sourceforge.net/DTD/sodipodi-0.dtd"
   xmlns:inkscape="http://www.inkscape.org/namespaces/inkscape"
   width="1600"
   height="900"
   viewBox="0 0 1600 900"
   id="svg2"
   version="1.1"
   inkscape:version="0.91 r13725"
   inkscape:export-filename="/home/ars/Pictures/saitama.png"
   inkscape:export-xdpi="90"
   inkscape:export-ydpi="90"
   sodipodi:docname="saitama.svg">
  <defs
     id="defs4">
    <clipPath
       clipPathUnits="userSpaceOnUse"
       id="clipPath3378">
      <rect
         style="fill:#0000ff;fill-rule:evenodd;stroke:#000000;stroke-width:1px;stroke-linecap:butt;stroke-linejoin:miter;stroke-opacity:1"
         id="rect3380"
         width="382.85715"
         height="282.85715"
         x="260"
         y="415.21933" />
    </clipPath>
  </defs>
  <sodipodi:namedview
     id="base"
     pagecolor="#ffffff"
     bordercolor="#666666"
     borderopacity="1.0"
     inkscape:pageopacity="0.0"
     inkscape:pageshadow="2"
     inkscape:zoom="0.49497475"
     inkscape:cx="772.89153"
     inkscape:cy="444.43672"
     inkscape:document-units="px"
     inkscape:current-layer="layer1"
     showgrid="false"
     units="px"
     inkscape:snap-page="true"
     inkscape:window-width="1366"
     inkscape:window-height="717"
     inkscape:window-x="0"
     inkscape:window-y="0"
     inkscape:window-maximized="1" />
  <metadata
     id="metadata7">
    <rdf:RDF>
      <cc:Work
         rdf:about="">
        <dc:format>image/svg+xml</dc:format>
        <dc:type
           rdf:resource="http://purl.org/dc/dcmitype/StillImage" />
        <dc:title></dc:title>
      </cc:Work>
    </rdf:RDF>
  </metadata>
  <g
     inkscape:label="Layer 1"
     inkscape:groupmode="layer"
     id="layer1"
     transform="translate(0,-152.36219)">
    <rect
       style="fill:#2b2e37;fill-rule:evenodd;stroke:#000000;stroke-width:1px;stroke-linecap:butt;stroke-linejoin:miter;stroke-opacity:1;fill-opacity:1"
       id="rect3399"
       width="1600"
       height="900"
       x="0"
       y="152.36218" />
    <path
       style="fill:#1b1d23;fill-opacity:1"
       d="m 1338.9062,562.15196 c -7.7552,-0.0228 -11.3136,0.7236 -18.395,3.00325 -2.6854,0.86443 -7.1386,2.26436 -9.8951,3.11089 -5.8399,1.79329 -17.1329,7.30764 -21.2266,10.36533 -4.1161,3.07434 -9.3685,7.77866 -11.5658,10.35894 l -1.904,2.23706 2.2371,-1.64128 c 1.2305,-0.90246 2.9491,-2.22347 3.8195,-2.93663 0.8703,-0.71317 3.2615,-2.31828 5.3133,-3.56701 2.0519,-1.24866 4.9887,-3.15234 6.5267,-4.22942 3.6946,-2.5872 8.4787,-5.00625 10.906,-5.51451 1.0766,-0.22541 2.8388,-0.88209 3.9155,-1.45935 1.0766,-0.5772 2.9631,-1.28487 4.1936,-1.57337 1.2304,-0.28857 6.2649,-1.56448 11.1866,-2.83542 11.5581,-2.9847 16.3675,-3.6028 27.9633,-3.59007 9.1017,0.01 13.4273,0.48539 20.3732,2.24091 4.1117,1.03919 4.2825,0.55541 0.2217,-0.62653 -7.1283,-2.07469 -11.0056,-2.56887 -24.2298,-3.09167 -3.8033,-0.15034 -6.8552,-0.24352 -9.4402,-0.25112 z m 39.9212,5.25955 1.3979,0.84178 c 0.769,0.46332 1.7756,0.84562 2.237,0.84562 0.7457,0.003 0.7457,-0.0497 0,-0.4715 -0.4614,-0.26102 -1.468,-0.64181 -2.237,-0.84562 l -1.3979,-0.37028 z m 5.125,1.73225 c -0.3581,0.004 2.1181,1.27892 5.5017,2.83285 18.0323,8.2811 28.3691,14.51954 34.189,20.63201 3.9296,4.12723 4.074,4.33802 9.5876,14.00026 3.5116,6.15348 5.1663,9.79612 6.8599,15.10085 5.065,15.86383 6.3878,28.61502 5.0186,48.37755 -0.6806,9.82356 -2.6259,27.57573 -3.7079,33.83661 -0.4518,2.61469 -1.1682,6.76801 -1.5913,9.22887 -0.4232,2.46079 -1.4129,6.86527 -2.1999,9.78749 -0.7869,2.92223 -2.0626,8.30365 -2.8342,11.95922 -2.1422,10.14992 -5.1553,19.41919 -9.0366,27.79935 -1.936,4.18004 -3.9071,8.74114 -4.3807,10.13599 -1.9934,5.87135 -10.9313,18.35758 -20.6486,28.84613 -2.1976,2.37204 -5.6763,6.2005 -7.7311,8.50752 -5.5716,6.25563 -16.5625,17.32281 -19.7442,19.88121 -3.7286,2.99838 -8.2157,5.66564 -15.7401,9.35827 -3.4277,1.68206 -6.5732,3.27682 -6.9906,3.54395 -2.2487,1.43913 -19.8331,5.21529 -27.0459,5.80792 -3.3837,0.27801 -8.1146,0.68101 -10.514,0.89559 -2.6492,0.23708 -5.8347,0.13469 -8.1103,-0.26009 -2.0611,-0.35752 -6.7677,-1.15965 -10.4589,-1.7835 -6.8528,-1.15818 -13.6031,-2.66544 -18.2745,-4.07951 -2.9247,-0.88534 -16.2928,-9.6451 -21.397,-14.02076 -7.1131,-6.09793 -9.245,-8.36776 -12.0155,-12.79459 -12.641,-20.19835 -13.8781,-21.95831 -11.8798,-16.89588 2.2716,5.75477 3.5844,8.51009 6.1295,12.86122 2.524,4.31517 2.6126,4.61867 2.5343,8.66895 -0.072,3.70202 -1.9482,18.26235 -2.7944,21.68137 -0.3054,1.23361 -0.4404,1.25625 -5.444,0.90456 -6.1162,-0.42994 -9.9539,0.47189 -14.1207,3.31717 -1.4931,1.01955 -3.6941,2.53012 -4.8906,3.35688 -1.5263,1.05478 -2.9442,1.52296 -4.7534,1.56953 -1.4183,0.0365 -3.3128,0.22467 -4.2102,0.41897 -1.8563,0.40193 -2.657,1.75148 -1.0391,1.75148 0.5821,0 1.5477,0.35784 2.1448,0.79566 1.036,0.75958 0.9362,0.94223 -2.1627,3.9706 -2.2492,2.1978 -3.1952,3.52992 -3.0763,4.3332 0.2844,1.92313 1.2937,1.69624 3.9539,-0.88919 6.698,-6.50971 16.0194,-14.04756 19.1483,-15.48394 5.1717,-2.37421 6.2878,-2.45504 9.5082,-0.68804 2.9769,1.63351 3.8005,3.55872 1.6951,3.9642 -1.1127,0.21425 -5.9824,2.86683 -7.6093,4.14485 -0.4846,0.38062 -1.3538,1.4463 -1.9309,2.36903 -0.577,0.92287 -2.2764,3.24968 -3.7771,5.16986 -2.265,2.89822 -2.8994,3.40016 -3.7297,2.95585 -1.3959,-0.74692 -1.7444,-0.17622 -1.3607,2.22298 0.2221,1.38987 0.025,2.65811 -0.6022,3.87067 -0.8933,1.72738 -0.9886,1.76602 -2.2448,0.943 -1.1624,-0.76208 -1.3902,-0.76408 -2.0051,-0.0231 -0.545,0.65698 -0.5497,1.31383 -0.024,3.06732 0.8193,2.7348 0.4199,3.49464 -1.6016,3.05066 -1.2648,-0.27782 -1.6085,-0.12102 -1.8617,0.84691 -0.1711,0.65318 -0.1861,1.98738 -0.033,2.96482 0.1725,1.1032 -0.043,2.20125 -0.5676,2.89563 -0.7208,0.95455 -1.0127,1.01547 -1.9898,0.41897 -0.6297,-0.38448 -1.496,-0.69956 -1.9257,-0.69956 -1.2109,0 -1.5144,2.25891 -0.5701,4.24863 0.7126,1.50185 0.7322,1.98899 0.1204,2.96867 -0.8361,1.3389 -1.6843,1.46583 -3.2518,0.48687 -0.8704,-0.54356 -1.2438,-0.53844 -1.8066,0.0243 -0.573,0.57302 -0.5301,1.02271 0.2242,2.33701 l 0.9341,1.62719 -5.0559,7.29161 c -5.5776,8.04487 -12.7088,15.97543 -17.949,19.96064 -3.3252,2.52875 -10.2117,6.04983 -14.6281,7.47867 -2.9555,0.95566 -16.9554,0.99062 -21.2893,0.0525 -6.6672,-1.44314 -17.0586,-7.12829 -17.0586,-9.33265 0,-0.41328 -0.7544,-1.61139 -1.6772,-2.66244 -0.9228,-1.05105 -1.6784,-2.31411 -1.6784,-2.80723 0,-0.49311 -0.7825,-2.16972 -1.7399,-3.72588 -2.7931,-4.53921 -3.949,-8.22763 -4.7074,-15.0227 -0.6674,-5.97998 -0.6459,-6.47741 0.3498,-8.11033 0.5834,-0.95671 1.0622,-2.02589 1.0622,-2.37672 0,-0.9375 -3.8348,-1.25001 -4.5639,-0.37156 -0.3328,0.40108 -1.2388,0.73031 -2.0141,0.73031 -1.4058,0 -2.8443,1.29979 -9.1802,8.29611 -1.4392,1.5893 -3.0119,2.88923 -3.4952,2.88923 -1.4219,0 -1.0449,-2.56196 0.6765,-4.59458 0.8557,-1.01044 2.2367,-2.75899 3.0673,-3.88475 0.8306,-1.12583 2.402,-2.99217 3.4927,-4.1487 2.4054,-2.55047 6.0311,-7.5284 5.7144,-7.84512 -0.5982,-0.59821 -7.8812,5.77265 -11.9669,10.46785 -6.0124,6.90927 -6.3062,7.29801 -9.43,12.52168 -3.1936,5.34018 -4.1485,6.47037 -7.8131,9.24552 -6.4244,4.86511 -12.9421,12.11291 -21.4444,23.84412 -2.6639,3.67564 -6.7996,11.69007 -6.7996,13.17769 0,0.34322 -0.3428,1.0224 -0.7623,1.50803 -0.4194,0.48564 -1.9556,3.52482 -3.4133,6.75477 -12.9602,28.71792 -14.1715,31.61536 -13.5044,32.28245 0.1804,0.18047 0.7318,-0.65444 1.2262,-1.85525 0.4944,-1.20074 2.2378,-5.07766 3.8732,-8.61514 1.6353,-3.53743 5.2648,-11.50298 8.0655,-17.7018 2.8007,-6.19869 5.7614,-12.49096 6.5792,-13.98231 2.2786,-4.15558 9.6304,-14.55327 12.7588,-18.04517 1.5386,-1.71748 3.7876,-4.3814 4.9981,-5.91939 9.3525,-11.88255 21.524,-19.90961 31.9135,-21.04843 2.1532,-0.23603 4.543,-0.57359 5.312,-0.74953 2.0319,-0.46498 2.7048,0.23578 3.6286,3.78226 0.4536,1.74175 2.6146,6.73903 4.8021,11.1059 5.1893,10.35879 8.1188,13.58906 15.5403,17.12779 2.8792,1.37288 6.6548,2.88605 8.3897,3.36329 4.3011,1.18303 15.1354,1.39838 19.1239,0.38053 3.399,-0.86749 11.9,-4.82684 16.7486,-7.80155 3.2094,-1.96892 14.5409,-11.34459 14.5409,-12.03096 0,-0.21694 0.6929,-1.13158 1.5388,-2.03207 0.8459,-0.90063 3.2459,-3.49584 5.3339,-5.76692 2.1821,-2.37348 3.9954,-3.9129 4.2653,-3.61954 0.2582,0.28064 0.9158,1.89568 1.4606,3.58751 1.2659,3.93135 5.0665,9.78143 8.7445,13.45956 1.5812,1.58123 5.2909,4.65885 8.2436,6.83933 2.9527,2.18055 6.2711,4.79829 7.3736,5.81817 1.1026,1.01982 3.2252,2.72253 4.7176,3.78354 1.4924,1.06109 2.8919,2.25574 3.1096,2.65348 0.4079,0.74508 -1.0492,6.12668 -5.3467,19.73898 -5.3764,17.02973 -14.1714,52.55795 -15.2981,61.79995 -0.764,6.2663 -1.7303,16.723 -2.2345,24.1888 l 0,10e-4 -0.4062,6.0129 7.5658,-0.074 c 5.8374,-0.058 6.9265,-0.1752 4.7688,-0.5112 -1.538,-0.2396 -3.9603,-0.4574 -5.3838,-0.4843 -2.9957,-0.057 -3.9523,-0.9054 -3.5913,-3.1852 0.1408,-0.8901 0.5318,-4.8892 0.8699,-8.8881 1.6043,-18.9716 9.8975,-56.91169 17.0138,-77.83867 1.3414,-3.94473 3.1567,-10.00675 4.0346,-13.47109 1.4755,-5.82188 1.5323,-6.41368 0.7432,-7.81949 -0.9024,-1.60786 -5.7511,-5.52103 -14.5243,-11.7209 -7.3359,-5.18405 -11.1921,-9.24064 -13.9144,-14.6396 -2.9904,-5.93058 -4.8607,-12.10727 -4.2025,-13.87854 0.2743,-0.73813 5.1551,-6.23914 10.8458,-12.22443 8.627,-9.07355 10.4396,-10.73048 10.906,-9.96559 2.1601,3.543 4.6304,6.94873 6.3614,8.76762 2.5058,2.63312 14.151,11.571 15.0753,11.571 0.3716,0 3.1737,1.25456 6.2269,2.78672 4.9715,2.49477 6.3284,2.90453 12.9931,3.92448 11.6493,1.78269 13.2883,2.22238 13.6492,3.66054 0.1714,0.68139 0.229,1.96127 0.1281,2.84438 -0.1623,1.42077 -0.452,1.6417 -2.5125,1.91676 -1.2807,0.17095 -2.7263,0.64134 -3.2134,1.0455 -0.9774,0.81121 -2.7754,6.18862 -3.3799,10.10908 -0.2134,1.38417 -0.9189,4.33206 -1.567,6.55105 -1.0747,3.67971 -1.354,4.10478 -3.1749,4.84442 -4.206,1.70843 -7.8682,7.52323 -7.8682,12.49094 0,3.06333 2.1766,8.62874 4.2896,10.96752 1.3833,1.53111 1.8703,2.51801 1.6618,3.3697 -0.1622,0.66249 -0.8052,3.72233 -1.4286,6.79833 -1.7876,8.81954 -3.2724,14.46591 -6.1756,23.48921 -1.6745,5.20426 -3.0489,10.83156 -3.6196,14.82156 -0.506,3.5375 -1.4136,8.3752 -2.0179,10.751 -1.265,4.9731 -1.3987,7.8814 -0.3998,8.7035 0.3844,0.3165 1.9572,0.7602 3.4953,0.9866 1.538,0.2264 3.7713,0.7534 4.9635,1.1711 1.1923,0.4176 3.1428,0.7585 4.3345,0.7585 1.7469,0 2.1679,-0.2027 2.1679,-1.0494 0,-0.5775 0.3765,-1.3634 0.838,-1.7463 0.4613,-0.383 0.8392,-1.3423 0.8392,-2.132 0,-0.7898 0.2455,-2.8356 0.5458,-4.5459 0.7649,-4.3568 2.1597,-12.7486 2.5612,-15.4135 0.1853,-1.2304 0.8213,-3.8738 1.4132,-5.87327 1.3618,-4.59975 2.5927,-10.14664 3.5991,-16.21938 0.4333,-2.61469 1.3828,-7.7551 2.1102,-11.42365 1.4946,-7.53982 1.4495,-7.48742 6.6894,-7.55171 2.9779,-0.0363 3.3798,-0.20359 5.4299,-2.25373 3.3238,-3.32383 4.643,-6.3202 4.6843,-10.63696 0.028,-2.92321 -0.2538,-4.1715 -1.4196,-6.28454 l -1.4542,-2.6381 1.2608,-4.07439 c 0.6934,-2.2409 2.3,-6.64867 3.5708,-9.79518 1.7615,-4.36149 2.1944,-6.02609 1.8219,-7.00589 -0.5448,-1.43304 -3.0304,-4.18481 -4.929,-5.45686 l -1.2415,-0.83153 2.1281,-2.46129 2.1269,-2.46257 6.1782,0.73544 c 6.2783,0.7466 17.5983,0.28788 29.5214,-1.19541 8.2451,-1.02566 23.7504,-4.90733 31.8801,-7.98221 1.2304,-0.4653 3.1565,-0.85812 4.2807,-0.87124 l 2.0436,-0.0243 -0.2742,2.37672 c -0.1512,1.30742 -0.8766,4.26452 -1.6118,6.57155 -2.9703,9.31929 -3.906,17.18316 -2.5702,21.5968 0.2901,0.95849 0.3653,2.00327 0.1678,2.32163 -0.8549,1.37865 -12.5354,6.35885 -18.0297,7.68752 -7.1286,1.72371 -9.9744,2.49651 -16.4449,4.46261 -2.7685,0.84112 -7.1459,2.06745 -9.7273,2.72522 -2.6288,0.66991 -4.8741,1.56513 -5.1045,2.03463 -0.4117,0.83915 -3.2718,9.17896 -7.289,21.25215 -1.1771,3.53755 -2.8103,9.57732 -3.6286,13.4224 -3.6257,17.03784 -7.0078,32.00924 -8.3384,36.91294 -1.3478,4.9668 -2.7212,11.9158 -4.4921,22.7294 -0.41,2.5042 -1.0204,5.0679 -1.3568,5.6964 -0.9142,1.7083 -0.8348,1.7758 2.1026,1.7758 l 2.7149,0 0.3511,-4.1576 c 0.1932,-2.2862 0.8525,-6.501 1.4644,-9.3672 0.6121,-2.8662 1.6314,-8.2321 2.2666,-11.9234 0.6353,-3.6913 2.1357,-10.8632 3.3338,-15.9388 1.1983,-5.0755 2.4731,-10.7388 2.8329,-12.58445 1.9656,-10.0834 8.1753,-30.7212 12.3846,-41.16153 l 1.713,-4.24863 10.1399,-2.68167 c 25.175,-6.65612 30.5336,-8.3874 36.5964,-11.8234 l 1.8476,-1.04678 1.754,2.23706 c 5.4858,7.00033 14.4755,13.4813 21.6762,15.62616 4.9446,1.47279 16.2297,1.74314 26.5745,0.63679 18.9648,-2.02836 34.9252,-4.51271 57.8767,-9.00849 7.2288,-1.41598 14.5032,-2.80275 16.1643,-3.08142 1.6611,-0.2786 3.8586,-0.78259 4.8841,-1.12109 2.5788,-0.8511 3.5377,-0.40778 6.4127,2.9661 7.07,8.29671 9.0844,12.14679 13.9221,26.61163 3.1765,9.49752 4.146,13.20933 4.7471,18.17585 1.5406,12.73067 2.1475,21.60617 2.141,31.40997 -0.01,9.1554 -0.1679,10.8518 -1.804,18.7357 -0.9894,4.7679 -1.8908,9.3605 -2.0014,10.2065 l -0.2011,1.5387 39.4753,0 c 38.9763,0 39.4633,-0.014 38.4979,-1.0813 -0.6047,-0.6682 -2.8947,-1.5219 -6.0014,-2.2371 -10.7513,-2.4754 -22.5298,-9.6622 -34.5169,-21.0599 -6.842,-6.5057 -8.6244,-9.0259 -14.1976,-20.085 -8.3631,-16.59497 -11.4907,-25.62262 -17.8146,-51.40768 l -3.0071,-12.25775 -2.1704,-0.74185 c -1.1936,-0.40777 -3.243,-1.7312 -4.5549,-2.94047 -1.312,-1.20928 -3.3562,-2.46773 -4.542,-2.79698 -3.043,-0.84499 -9.2625,-0.74765 -12.9804,0.20244 -1.7361,0.44372 -9.5747,1.97114 -17.4186,3.39532 -7.844,1.42411 -16.2748,3.0443 -18.7357,3.60033 -17.4761,3.94808 -58.4899,8.73472 -61.458,7.17245 -0.5804,-0.30563 -1.9077,-0.41742 -2.9481,-0.24857 -2.3571,0.38252 -6.4883,-0.8154 -11.9361,-3.46066 -3.2662,-1.58595 -5.3821,-3.21308 -9.5582,-7.35055 -6.5202,-6.46017 -7.7838,-9.11783 -7.7772,-16.38082 0.01,-5.16956 0.5449,-7.57767 2.7919,-12.42303 0.8559,-1.84566 1.9865,-4.99109 2.5125,-6.99052 0.5259,-1.99943 1.6585,-6.02726 2.5164,-8.94955 0.8579,-2.92216 1.9526,-7.07432 2.4331,-9.22758 2.5712,-11.52352 1.2087,-21.18611 -2.5126,-17.81839 -0.901,0.81554 -1.2325,0.84252 -2.4356,0.19859 -1.6839,-0.90115 -1.7472,-2.10717 -0.3216,-6.17051 0.9071,-2.58544 1.3067,-3.0837 2.6009,-3.24029 4.2424,-0.51352 19.9436,5.76953 24.4335,9.77724 1.1545,1.03045 2.3494,1.87319 2.656,1.87319 1.2841,0 0.3595,-1.53625 -2.7367,-4.54717 -3.6677,-3.56668 -12.5045,-8.23366 -17.9248,-9.46589 -5.2713,-1.19832 -6.2437,-3.01648 -5.0891,-9.52356 0.2957,-1.66624 1.0601,-6.35077 1.699,-10.41018 1.7221,-10.94243 2.3553,-12.66218 6.1192,-16.63067 1.7699,-1.86599 4.4294,-4.90398 5.9104,-6.74964 7.5965,-9.46603 9.5386,-10.90602 14.7101,-10.90602 4.7791,0 8.503,-1.09516 14.8421,-4.36651 9.1449,-4.71934 16.337,-11.92436 20.7601,-20.79986 2.33,-4.67546 6.1364,-15.8674 7.2288,-21.25343 1.3574,-6.6924 1.7177,-13.01978 0.9058,-15.91957 -0.7938,-2.83543 -3.5027,-5.64481 -7.3184,-7.59142 l -2.3294,-1.18901 0.3741,-3.44913 c 0.206,-1.89748 0.9856,-7.35142 1.7323,-12.11937 0.7468,-4.76789 1.5082,-10.93455 1.6925,-13.703 0.1844,-2.7684 0.8324,-7.54938 1.4389,-10.62544 1.1797,-5.98332 2.4287,-25.43311 2.3703,-36.9129 -0.056,-11.12647 -1.8627,-21.37148 -6.1295,-34.76808 -2.0177,-6.33503 -8.5178,-18.94833 -12.6998,-24.64491 -2.7808,-3.78774 -10.8991,-10.9035 -15.1559,-13.28403 -7.258,-4.05886 -29.3252,-13.72715 -31.2831,-13.70556 z m -111.4036,24.60262 c -0.2994,6.6e-4 -2.4165,1.57361 -4.7048,3.49526 -4.9477,4.15477 -13.0241,13.58074 -16.6499,19.43276 -1.4295,2.30702 -3.3101,5.02172 -4.1781,6.03214 -0.868,1.01043 -1.5773,2.37031 -1.5773,3.02248 0,1.13883 0.043,1.14711 1.0865,0.20244 0.5978,-0.54095 1.236,-1.6626 1.4184,-2.49332 0.1825,-0.83073 1.7957,-3.13327 3.5849,-5.11604 1.7892,-1.98272 3.8101,-4.69728 4.4908,-6.03214 1.9843,-3.89077 4.9061,-7.64764 7.1712,-9.2199 2.5299,-1.75623 10.1282,-9.32368 9.3583,-9.32368 z m 3.0404,44.07639 c -7.9812,-0.0517 -11.1354,0.68068 -11.1354,2.3165 0,1.24219 0.9642,1.68848 2.5164,1.16466 0.6152,-0.20752 8.1663,-0.19235 16.7793,0.0333 15.0905,0.39546 15.8837,0.47266 21.812,2.11279 7.4809,2.0696 10.9061,2.27091 10.9061,0.64062 0,-0.69621 -0.4674,-1.20799 -1.2582,-1.37735 -0.6922,-0.14815 -4.5304,-1.05798 -8.5293,-2.02181 -5.6541,-1.36279 -9.4474,-1.87934 -17.0586,-2.32292 -5.7794,-0.33678 -10.4045,-0.52231 -14.0323,-0.54581 z m 82.6587,15.62488 c -1.9107,0.0101 -3.4029,0.13149 -4.2038,0.38565 -0.673,0.21361 -1.2235,0.84035 -1.2235,1.39273 0,0.86963 0.7259,1.05733 5.4171,1.40169 2.9794,0.21874 8.0767,0.7639 11.3263,1.21078 3.2495,0.44688 8.9278,1.18637 12.6191,1.64385 13.1443,1.62914 20.0116,3.37815 23.8684,6.07955 1.5825,1.10847 2.3683,1.12078 3.257,0.05 0.8991,-1.08337 0.036,-2.18963 -2.8572,-3.66567 -3.2965,-1.68176 -13.2122,-4.24931 -18.0632,-4.67658 -2.432,-0.21417 -6.4731,-0.87565 -8.9789,-1.47087 -5.9273,-1.40772 -15.4291,-2.38138 -21.1613,-2.3511 z m -83.2634,6.94567 c -5.4872,-0.0997 -7.0038,0.58608 -10.5563,3.71307 -5.4747,4.81899 -5.4233,12.56489 0.1178,17.81455 3.8794,3.67551 9.6947,5.92019 19.9837,7.71442 2.6467,0.46156 5.4412,0.95219 6.2103,1.09035 2.9547,0.53103 9.3378,-0.21299 12.0566,-1.40554 5.6288,-2.46899 8.6982,-6.01082 10.5101,-12.12706 0.6511,-2.19793 0.7299,-3.35008 0.3062,-4.47414 -0.8298,-2.2018 -3.7509,-5.05292 -6.7496,-6.58564 -3.887,-1.98683 -21.0359,-5.29964 -29.2664,-5.65416 -0.9635,-0.0415 -1.8286,-0.0716 -2.6124,-0.0858 z m 0.5393,2.8162 c 2.6684,0.01 5.9151,0.3513 9.9169,0.98912 15.714,2.50453 19.2838,3.75394 23.0805,8.07831 2.1406,2.43796 2.1865,3.11081 0.4575,6.75732 -1.7029,3.59168 -5.0369,6.74425 -7.8913,7.46074 -2.6407,0.66282 -11.5831,1.19792 -13.9823,0.83665 -3.7995,-0.57196 -13.0297,-3.11202 -15.3238,-4.2166 -6.9485,-3.34567 -10.2764,-10.01911 -7.3723,-14.78181 2.1715,-3.56115 5.2445,-5.1449 11.1148,-5.12373 z m 14.2232,5.65417 c -0.8271,-0.0114 -1.7159,0.5854 -2.2665,1.79375 -0.4858,1.0664 -0.4339,1.52769 0.2447,2.20632 1.8529,1.85294 4.5535,0.37275 3.9206,-2.14866 -0.3062,-1.22036 -1.0717,-1.83998 -1.8988,-1.85141 z m 74.9059,7.18527 c -4.1059,-0.0986 -6.5291,0.64513 -9.8553,2.83541 -3.5094,2.3107 -5.3326,4.96557 -5.3326,7.76695 0,2.84653 2.173,7.60176 4.5279,9.90793 2.4696,2.41842 10.8417,6.48981 16.1707,7.86433 5.3107,1.36987 11.7806,1.47671 15.3737,0.25241 4.2623,-1.45225 9.3205,-4.48296 11.5428,-6.9162 3.4116,-3.73501 3.1841,-8.05478 -0.5944,-11.28913 -5.5712,-4.76867 -19.5789,-9.59802 -29.9621,-10.32946 -0.6628,-0.0467 -1.2841,-0.0782 -1.8707,-0.0922 z m -42.8976,2.14737 c -0.6102,0 -0.8136,0.74553 -0.8136,2.98276 0,1.64053 0.1729,3.1557 0.3844,3.36713 0.2115,0.2115 0.652,0.2958 0.9788,0.18835 1.4046,-0.4615 0.8937,-6.53824 -0.5496,-6.53824 z m 42.8746,1.11854 c 3.8903,0 6.253,0.39544 11.7696,1.97057 8.8487,2.52646 16.9129,6.39873 18.3987,8.83552 1.2443,2.04056 1.3999,4.25206 0.3883,5.5081 -1.2206,1.5153 -5.6201,4.17289 -8.9598,5.41201 -4.6657,1.731 -8.3045,1.91485 -13.8312,0.70085 -6.2738,-1.37813 -13.0063,-4.6618 -16.3359,-7.96811 -3.0262,-3.00495 -3.5983,-4.63075 -2.8995,-8.24231 0.453,-2.34133 0.7807,-2.74731 3.5504,-4.39853 2.8172,-1.67963 3.4254,-1.8181 7.9194,-1.8181 z m -138.9404,0.22806 c -0.4279,0.18373 -2.6277,7.79192 -2.6061,9.09177 0.015,0.88698 0.087,0.9069 0.5292,0.15119 0.6556,-1.12045 2.4379,-8.91144 2.1128,-9.23656 -0.01,-0.01 -0.022,-0.0123 -0.036,-0.007 z m 148.4831,5.36461 c -2.0233,0 -3.0729,2.39544 -1.6656,3.80276 0.9288,0.92877 2.9672,0.83997 3.8015,-0.16529 0.5592,-0.67384 0.5156,-1.10815 -0.2242,-2.23706 -0.5049,-0.77061 -1.365,-1.40041 -1.9117,-1.40041 z m -151.38,5.68107 c -0.1516,0.0722 -0.5476,0.83888 -1.3069,2.43182 -1.1216,2.35301 -2.3003,3.8438 -3.9347,4.97639 -5.4124,3.75082 -8.7329,9.29228 -10.3974,17.35073 -0.4978,2.41015 -0.8039,4.48258 -0.6803,4.6061 0.2287,0.22862 1.9916,-4.42901 3.2095,-8.48061 0.3699,-1.23046 1.1305,-3.15045 1.6913,-4.26657 1.1269,-2.24307 5.9518,-6.7824 6.8803,-6.4729 0.7189,0.23964 0.5053,3.79065 -0.5253,8.71637 -0.4202,2.00828 -1.0495,8.19357 -1.3979,13.744 -0.3813,6.07582 -0.9479,10.82271 -1.4234,11.92847 -1.1135,2.5893 -0.968,7.2235 0.3151,10.05015 0.6633,1.46124 1.1433,3.94256 1.2454,6.43189 l 0.1666,4.0526 -1.854,0.17681 c -2.3998,0.23039 -3.2294,-0.51599 -5.1391,-4.62532 -1.8906,-4.06846 -2.8584,-10.10891 -3.3184,-20.71914 -0.4736,-10.92348 -1.4583,-8.38495 -1.3518,3.48501 0.1365,15.21215 1.886,20.33791 9.3276,27.324 3.9793,3.73593 4.1699,4.03487 5.6541,8.89959 0.8447,2.76845 1.9529,6.10204 2.4639,7.4082 0.5109,1.30617 0.9744,2.37672 1.0288,2.37672 0.3747,0.008 -0.6811,-7.08592 -1.4978,-10.06424 -3.0956,-11.28992 -4.3492,-29.17588 -3.4696,-49.49737 0.3957,-9.14256 0.7257,-12.24089 1.4901,-13.98231 0.5401,-1.2304 1.3159,-4.62685 1.7233,-7.54914 0.4074,-2.92229 0.8872,-6.19456 1.0673,-7.27112 0.1207,-0.72195 0.1512,-1.08625 0.033,-1.03013 z m 96.8691,3.29795 c -0.2949,0.0217 -0.6131,0.38968 -0.8098,1.1416 -0.8331,3.18626 -10.1251,19.87202 -12.7394,22.87677 -2.2659,2.60426 -3.6277,6.38248 -3.6081,10.01043 0.019,3.48238 1.0655,9.27148 1.9284,10.66771 0.7283,1.17845 1.6873,0.20371 1.6873,-1.71431 0,-1.04829 -0.2628,-3.68529 -0.5842,-5.86046 -0.3365,-2.27672 -0.3869,-4.71719 -0.1191,-5.75026 0.2557,-0.98708 3.0939,-6.1866 6.3076,-11.55434 6.0924,-10.17583 8.6574,-15.58778 8.6574,-18.26683 0,-1.0343 -0.341,-1.5782 -0.7201,-1.55031 z m 122.8376,42.75285 c 0.4489,0.0218 0.9979,0.14182 1.6861,0.33185 4.3235,1.19379 5.8253,5.20075 5.1994,13.88109 -0.8737,12.11609 -6.5629,24.84878 -15.8158,35.39846 -3.0588,3.48737 -10.6959,9.95006 -11.7645,9.95662 -0.2592,10e-4 -1.6037,0.75571 -2.9879,1.67588 -2.1708,1.44307 -3.036,1.66804 -6.2922,1.6746 -2.0764,10e-4 -3.7758,-0.21025 -3.7758,-0.47022 0,-0.25991 0.5378,-0.95143 1.1941,-1.53751 1.2274,-1.09604 4.2383,-4.90676 7.8566,-9.9438 1.1324,-1.57644 3.3731,-5.25723 4.9802,-8.17952 3.472,-6.31283 3.0975,-5.7894 3.822,-5.34154 0.565,0.34919 -1.456,4.7952 -4.5382,9.98352 -1.0821,1.82159 -1.1442,2.20115 -0.4369,2.64835 0.454,0.28713 1.2568,0.52388 1.7848,0.53044 1.5272,0.0136 4.6559,-3.52768 6.5933,-7.4633 2.0188,-4.10073 1.952,-5.98881 -0.3074,-8.67409 l -1.3275,-1.5785 3.8528,-7.88867 c 3.8629,-7.90987 6.1473,-10.91073 8.8663,-11.64788 2.2009,-0.59663 2.4817,0.36492 1.5464,5.29542 -0.8313,4.38282 -0.7478,6.23842 0.2806,6.23842 0.9326,0 3.2884,-5.53138 3.6439,-8.55621 l 0.3575,-3.03656 -2.961,-3.15189 c -1.6281,-1.73341 -3.294,-3.15188 -3.7028,-3.15188 -0.9072,0 -0.9154,-0.29273 -0.095,-3.8476 0.5541,-2.40053 0.9944,-3.21099 2.3409,-3.14548 z m -146.5267,31.45989 c -0.9089,0.0436 -1.8414,0.21777 -3.2056,0.50225 -7.9348,1.65444 -12.4482,6.23421 -9.7171,9.86052 2.283,3.03119 19.6984,9.12975 29.6341,10.37687 5.7798,0.7258 8.5135,0.74079 10.3179,0.059 1.5909,-0.60103 4.651,-3.18787 4.651,-3.93217 0,-0.22186 -1.1172,-1.77489 -2.4831,-3.45169 -4.3382,-5.32562 -13.5434,-10.32041 -22.9524,-12.45379 -3.2795,-0.74362 -4.7299,-1.03354 -6.2448,-0.96094 z m -53.2348,54.95167 c 0.3175,0 3.005,2.29649 5.972,5.10451 2.967,2.80795 6.6754,5.925 8.241,6.92645 2.4879,1.59159 3.175,2.48141 5.4555,7.05971 3.7831,7.59518 11.8877,18.11044 19.1241,24.81274 3.3211,3.07606 6.438,6.00348 6.9251,6.50492 2.066,2.12669 8.8465,6.83111 12.4909,8.6664 2.1636,1.08955 5.2724,2.87017 6.9086,3.95651 2.8709,1.90621 6.0402,3.20259 17.7133,7.24933 9.7648,3.38516 15.3876,4.65087 22.3681,5.03404 6.3415,0.34801 6.5953,0.41029 6.9188,1.69894 0.1859,0.73571 0.1853,1.48922 0,1.6746 -0.4943,0.49424 -17.0253,3.84469 -23.8467,4.83289 -3.2299,0.46793 -9.528,1.39194 -13.9964,2.05385 -8.2817,1.22659 -9.8696,1.19862 -20.1849,-0.3626 -1.7858,-0.27027 -2.1649,-0.10475 -3.2531,1.42347 l -10e-4,0 c -1.4151,1.98723 -2.3291,2.0819 -6.7484,0.69957 -2.5163,-0.78707 -3.1114,-1.21276 -3.2697,-2.34213 -0.279,-1.99142 -0.9551,-2.59343 -3.3108,-2.94945 -14.3521,-2.1688 -27.293,-7.14662 -38.4427,-14.78693 -5.8056,-3.97833 -7.7841,-5.8532 -10.4204,-9.87718 -3.0491,-4.65401 -2.9373,-6.1505 0.9891,-13.31607 2.9746,-5.42861 3.2558,-6.28874 4.993,-15.261 1.0125,-5.22932 2.2575,-12.52807 2.7662,-16.21939 1.3116,-9.51661 1.947,-12.58318 2.6087,-12.58318 z m -93.543,36.42218 c -0.1943,-0.008 -0.4156,0.0268 -0.6175,0.10762 l 0,10e-4 c -0.4461,0.17857 -0.3133,0.31007 0.3382,0.33697 0.5896,0.0242 0.92,-0.1075 0.7342,-0.29341 -0.093,-0.0931 -0.2606,-0.14441 -0.4549,-0.15247 z m 9.2597,0.49072 c -0.6094,0 -0.2959,0.50712 0.9506,1.5375 3.4126,2.82094 3.6488,3.36121 4.0565,9.28011 0.4397,6.38447 0.1749,7.00583 -2.6304,6.1449 -1.2184,-0.37406 -2.9143,-0.38971 -4.9085,-0.0449 -1.6755,0.28969 -4.179,0.49482 -5.5632,0.45612 -4.3429,-0.12129 -9.4852,0.58052 -10.3115,1.40682 -1.3963,1.39629 -2.1512,0.95799 -1.763,-1.02372 0.1958,-0.99968 0.5081,-3.76867 0.6944,-6.15258 0.1862,-2.38398 0.5584,-4.33448 0.8264,-4.33448 1.2261,0 0.2929,-0.90564 -1.517,-1.47216 -1.9148,-0.59926 -1.9868,-0.57392 -1.599,0.56247 0.5821,1.70606 0.4899,4.17629 -0.2601,7.00076 -0.3586,1.35019 -0.745,3.61456 -0.8597,5.03277 -0.1147,1.41821 -0.6221,4.46696 -1.1262,6.77398 -0.5041,2.3071 -1.0495,6.58468 -1.2134,9.5069 -0.2926,5.21777 -0.2628,5.38577 1.681,9.36468 1.4187,2.90386 3.0522,5.08403 5.7669,7.69393 4.114,3.95516 5.386,4.64804 6.6331,3.61313 1.1125,-0.92326 1.0207,-1.64102 -0.4023,-3.15573 -0.6677,-0.71077 -1.1051,-1.40095 -0.9725,-1.53366 0.1327,-0.13264 1.6223,0.23593 3.3108,0.81873 1.6885,0.58285 3.8255,1.08576 4.7483,1.11725 0.9228,0.0317 2.1805,0.25588 2.7957,0.49841 0.9824,0.3871 0.9026,0.48861 -0.6599,0.83537 -2.3521,0.52185 -3.3574,1.70513 -2.4151,2.84054 0.7703,0.92824 2.0056,1.10412 2.4702,0.35234 0.1652,-0.26719 1.2497,-0.63942 2.4101,-0.82769 1.1603,-0.18827 3.1963,-0.92647 4.5241,-1.64 2.2365,-1.20206 3.1934,-2.37593 6.0219,-7.39283 1.1789,-2.09107 3.5328,-5.16512 7.2813,-9.50818 1.5931,-1.84566 3.3136,-4.36221 3.8233,-5.59267 0.5097,-1.23046 1.8877,-3.24367 3.0622,-4.47413 1.1745,-1.23047 3.1428,-3.74701 4.3742,-5.59267 1.2314,-1.8456 3.1521,-4.44967 4.2691,-5.78614 2.3264,-2.78335 2.4958,-3.44273 0.8841,-3.44273 -0.7635,0 -1.4047,0.60836 -1.9168,1.8181 -0.4231,0.99981 -1.8694,2.89021 -3.2146,4.20123 l -2.4459,2.38441 -3.0481,-1.62976 c -2.9477,-1.57551 -4.4455,-1.95298 -10.2488,-2.583 -1.4995,-0.16276 -2.912,-0.41062 -3.1391,-0.55094 -0.6809,-0.42089 -1.8445,-5.21335 -1.4901,-6.1372 0.496,-1.29246 3.8481,-1.07832 5.6798,0.36259 l 1.5516,1.21976 1.9283,-2.10382 c 2.1641,-2.36134 2.0732,-3.04132 -0.2767,-2.06795 -3.0406,1.25946 -8.9885,-0.98788 -12.4333,-4.69835 -1.5748,-1.69616 -3.9668,-3.07757 -5.3287,-3.07757 z m 38.239,7.30314 c -0.1932,-0.005 -0.4357,0.0481 -0.7278,0.16016 -0.4746,0.18223 -0.8636,0.84219 -0.8636,1.46703 0,1.48709 1.4979,1.46898 1.9719,-0.0243 0.3318,-1.0457 0.1991,-1.58689 -0.3805,-1.60284 z m 211.4119,11.73372 c -0.2004,-0.0118 -0.8843,0.8594 -1.5196,1.93597 -1.4324,2.42779 -2.4023,2.55573 -1.9424,0.25625 l 0.3395,-1.7015 -3.8489,0.3485 c -3.6969,0.33423 -3.9441,0.45125 -6.2268,2.94432 -1.3073,1.42785 -2.3768,3.02821 -2.3768,3.55675 0,0.52861 -0.2207,1.09728 -0.4894,1.26332 -0.757,0.46792 -0.442,5.0746 0.4177,6.1103 0.4222,0.50853 1.1137,0.92378 1.5375,0.92378 1.1989,0 0.93,0.82503 -1.166,3.57085 -1.0652,1.39551 -2.6242,3.86802 -3.4644,5.49529 -0.9671,1.87269 -1.6012,2.61989 -1.7285,2.03592 -0.2902,-1.33103 -3.7166,-1.1462 -4.5869,0.24728 -0.8278,1.32552 -0.3436,1.91261 0.797,0.96607 0.5711,-0.47397 0.852,-0.50245 0.852,-0.0871 0,0.34085 -1.0066,1.28575 -2.2371,2.09997 -1.3071,0.86507 -2.237,1.92288 -2.237,2.54457 0,0.58509 -0.4257,1.71444 -0.9469,2.50997 -0.8977,1.37 -0.8937,1.48645 0.082,2.19992 1.3341,0.97554 1.7568,0.66669 3.0879,-2.25501 0.6055,-1.32925 1.4861,-2.56391 1.9564,-2.74444 0.4703,-0.1804 0.8634,-0.77686 0.8726,-1.32482 0.01,-0.54795 0.6144,-1.43007 1.344,-1.96032 1.819,-1.32197 2.2053,-0.19091 1.1378,3.32742 -1.0219,3.36686 -1.0151,6.73738 0.016,8.54211 0.4497,0.78674 0.8194,2.98837 0.8443,5.03405 0.046,3.7867 0.8518,6.77512 2.5125,9.30958 0.8443,1.28852 1.0449,1.36649 1.485,0.58041 0.2796,-0.49981 0.7955,-2.99213 1.1454,-5.53886 0.9768,-7.10843 1.7397,-7.37842 8.5216,-3.00198 2.1356,1.37813 6.1056,3.3078 8.8215,4.28708 4.9369,1.78019 6.1908,2.55991 4.8098,2.99044 -0.4041,0.12602 -2.5296,0.75033 -4.7227,1.38888 -4.6785,1.36193 -7.1246,3.0409 -5.8002,3.97958 1.5784,1.11894 15.5829,-0.75432 19.0522,-2.54842 2.8235,-1.46006 20.5516,-5.7183 28.7667,-6.90979 2.1534,-0.31226 6.81,-0.84457 10.3474,-1.1826 3.5376,-0.33798 8.4452,-0.83809 10.9061,-1.11085 2.4608,-0.27283 8.3751,-0.78644 13.143,-1.1416 8.0186,-0.59722 9.0782,-0.56088 14.1297,0.48688 7.0399,1.4602 10.2611,2.98741 15.9426,7.55555 4.5552,3.66245 6.1394,4.49666 5.5325,2.91485 -0.1697,-0.44221 -0.6004,-1.88731 -0.9571,-3.2121 -0.3568,-1.3248 -1.442,-3.29074 -2.4126,-4.36908 -1.7257,-1.91723 -2.2107,-3.1483 -5.066,-12.86762 -2.5087,-8.5395 -6.9698,-14.49277 -13.0368,-17.39557 -6.9208,-3.31137 -7.3207,-3.36518 -28.9538,-3.9296 -11.0738,-0.28897 -21.0369,-0.7669 -22.1401,-1.06216 -1.1031,-0.2952 -3.5402,-1.52825 -5.4159,-2.74061 -6.5805,-4.25325 -13.2889,-5.68958 -23.6186,-5.05582 -3.2971,0.20225 -3.9733,0.0432 -7.2672,-1.71432 -2.1995,-1.17352 -4.074,-2.64713 -4.7535,-3.73485 -0.6171,-0.98781 -1.2859,-1.80566 -1.4862,-1.81681 z m -268.4841,2.29088 c 0.2692,0.0189 0.6939,0.26727 1.084,0.65728 0.8718,0.87182 0.8742,0.94557 0.02,0.94557 -1.0195,0 -1.8651,-0.99219 -1.3146,-1.54264 0.048,-0.048 0.1204,-0.0665 0.2101,-0.0602 z m 34.0288,0.21012 c 1.3097,-0.0464 1.8783,0.46525 1.8783,1.60669 0,0.66775 0.5034,1.64617 1.1186,2.17301 0.6152,0.52677 1.1185,1.21151 1.1185,1.52213 0,0.67843 -2.6088,0.76256 -3.0199,0.0974 -0.1589,-0.25695 -1.631,-0.35643 -3.2711,-0.22037 -2.1847,0.18118 -3.165,0.0258 -3.6682,-0.58041 -1.3857,-1.66979 0.4015,-3.49416 4.2807,-4.36907 0.6079,-0.13711 1.1266,-0.21389 1.5631,-0.22935 z m -23.6212,2.08844 c 0.8672,-0.0687 0.2236,0.75583 -2.0948,2.29473 -1.7362,1.15233 -3.9558,3.09052 -4.9328,4.30629 -2.1176,2.63502 -2.7086,2.76119 -2.7086,0.58169 0,-1.97575 2.2917,-4.08418 6.5792,-6.05521 1.5732,-0.72316 2.6368,-1.08627 3.157,-1.1275 z m 278.9391,4.95205 c 0.723,0.0107 1.5241,0.0503 2.4459,0.11531 5.9332,0.41872 9.337,1.82475 10.6395,4.3947 1.6477,3.25101 2.4423,3.82326 5.2993,3.82326 1.45,0 4.8724,0.41659 7.6042,0.92506 5.6041,1.04304 14.363,1.15273 19.7878,0.24857 5.0079,-0.83477 17.5021,-0.73531 21.2828,0.16912 1.7088,0.40869 4.1,1.37201 5.3134,2.14097 2.6274,1.66507 7.3395,6.59309 8.0181,8.38581 1.0437,2.7577 2.9314,11.17394 2.5843,11.52103 -0.4784,0.47848 -5.3211,-4.73279 -6.5485,-7.0469 -2.0672,-3.89684 -10.8085,-7.25021 -12.5806,-4.82648 -0.4111,0.56226 -0.664,1.28407 -0.5625,1.60413 0.1015,0.32006 1.9109,1.77494 4.0206,3.23388 2.1097,1.45902 4.8606,3.58783 6.1141,4.73039 l 2.2793,2.07691 -7.2698,0.67778 c -21.476,1.99851 -33.0219,3.6244 -38.3876,5.40689 -3.727,1.23814 -6.5004,1.62538 -6.9086,0.96478 -0.4436,-0.71779 3.6713,-4.90791 6.7061,-6.82907 1.2298,-0.77848 3.2904,-2.26851 4.5792,-3.31076 1.289,-1.04226 3.2326,-2.52386 4.3192,-3.29282 2.5242,-1.78649 2.5544,-2.40916 0.067,-1.36966 -1.0667,0.44569 -3.0483,0.80975 -4.4037,0.80975 -1.3554,0 -3.4863,0.36123 -4.7355,0.80206 -1.8239,0.64354 -7.7904,1.13839 -11.0585,0.91738 -0.3328,-0.0226 -1.4398,-1.33092 -2.4613,-2.90716 l -1.8578,-2.86616 0.9315,-4.78933 c 1.3131,-6.74986 0.3023,-7.51845 -3.0609,-2.32803 -0.9917,1.53045 -2.0971,2.78159 -2.4562,2.78159 -0.3591,0 -1.7923,-0.8879 -3.1852,-1.97313 -3.3947,-2.64473 -7.2914,-3.92637 -15.2943,-5.03148 -3.6771,-0.50774 -6.7773,-1.01312 -6.8893,-1.12365 -0.112,-0.11054 0.3285,-0.87738 0.9788,-1.70407 0.6502,-0.8267 1.1813,-1.82754 1.1813,-2.22298 0,-0.39556 0.8184,-0.89327 1.8182,-1.107 0.9996,-0.21379 2.0691,-0.57739 2.3767,-0.80719 0.3076,-0.22973 2.0145,-0.86576 3.7925,-1.4145 1.8884,-0.58283 3.3518,-0.81106 5.5209,-0.779 z m -20.1439,0.57015 c 0.1698,0.0227 0.3456,0.14352 0.5587,0.35363 0.3899,0.38448 1.0193,0.69829 1.3991,0.69829 0.3799,0 1.3993,0.27353 2.2653,0.60731 l 1.5746,0.60731 -2.797,1.06985 c -1.538,0.58869 -2.9852,1.07086 -3.2159,1.07112 -0.7151,6.6e-4 -0.4635,-0.67915 0.5599,-1.51443 0.8907,-0.72705 0.8399,-0.76917 -0.5599,-0.47023 -1.7219,0.36769 -1.9187,-0.0821 -0.7367,-1.68357 0.4014,-0.54382 0.669,-0.77712 0.9519,-0.73928 z m -2.7021,3.54011 c 0.1571,0.0181 0.2682,0.23047 0.3997,0.59962 0.5493,1.54207 0.2328,2.12256 -2.2486,4.11667 -2.5596,2.05689 -3.2849,2.23174 -2.018,0.48559 0.5023,-0.69208 1.5796,-2.25995 2.3935,-3.48372 0.8228,-1.23718 1.2114,-1.74833 1.4734,-1.71816 z m -252.8412,3.66438 c 1.8058,0 2.5863,1.27268 1.5477,2.52407 -0.9571,1.15325 -4.4036,1.09036 -4.8559,-0.0884 -0.4579,-1.193 1.2296,-2.43566 3.3082,-2.43566 z m 277.6987,12.58447 c 0.2111,0.0128 0.4053,0.0474 0.5754,0.10762 3.1133,1.10261 3.8122,3.8636 1.4478,5.72336 -0.8105,0.63757 -1.6289,1.12464 -1.8182,1.08266 -0.1891,-0.0418 -0.9055,-0.18402 -1.5912,-0.31647 -1.8511,-0.35765 -3.7144,-3.20669 -2.9867,-4.56639 0.5973,-1.11614 2.896,-2.12012 4.3729,-2.03078 z m -145.2812,3.65029 c 0.3106,0.04 0.5675,0.52086 0.5675,1.34916 0,0.75086 0.25,1.51951 0.5548,1.70791 0.3493,0.21583 0.2351,1.10728 -0.3088,2.41003 -1.1268,2.69925 -1.7931,3.33742 -2.2473,2.15379 -0.3479,-0.90672 0.105,-5.29571 0.7086,-6.8688 0.2099,-0.54719 0.4836,-0.78322 0.7252,-0.75209 z m -6.7228,3.34023 c 0.6952,0 0.8714,0.70278 0.8649,3.49525 l -0.01,3.49526 1.7758,0.17297 c 0.9769,0.0947 2.0777,0.53394 2.4459,0.9776 0.3682,0.44358 1.0047,0.80719 1.4145,0.80719 1.1717,0 3.5563,-2.68463 4.5164,-5.08402 0.6675,-1.66821 1.1845,-2.18709 2.1795,-2.18709 1.8988,0 2.1061,0.79478 0.8277,3.18006 -0.624,1.16421 -1.1353,2.80957 -1.1353,3.65542 0,1.91972 -2.4368,10.4212 -3.6707,12.80741 -1.1124,2.15096 -0.7649,5.13628 0.9302,8.00911 0.9654,1.63639 1.1,2.48249 0.7751,4.84442 -0.2205,1.60373 -0.853,3.31945 -1.4388,3.90526 -0.5748,0.57472 -0.8975,1.42843 -0.7175,1.89753 0.7116,1.8543 -0.3021,3.58011 -2.4536,4.17817 -3.0103,0.83595 -4.3096,0.72766 -5.3761,-0.451 -0.6357,-0.70238 -2.0687,-1.15081 -4.4217,-1.38375 -7.7833,-0.77074 -10.9589,-2.9441 -12.1616,-8.32174 -0.6221,-2.78132 -0.5945,-3.5095 0.2152,-5.62983 1.1851,-3.10321 4.2171,-6.07962 6.3666,-6.24867 2.318,-0.18237 2.9391,-0.70983 2.9391,-2.50229 0,-1.56529 2.4569,-11.11141 4.2936,-16.68191 0.6163,-1.86921 1.2833,-2.93535 1.8372,-2.93535 z m 127.2682,2.31137 c 1.0147,-0.036 1.4078,0.22695 1.6553,1.00707 0.1997,0.62996 0.206,1.39877 0.014,1.70919 -0.1918,0.31036 -0.8993,0.56263 -1.5733,0.55607 -3.1405,-0.0218 -3.6541,-2.93908 -0.5702,-3.23901 0.1718,-0.0167 0.3291,-0.0281 0.4741,-0.0333 z m -127.864,24.53344 c -0.2735,0 -1.0346,1.14384 -1.6912,2.54073 -0.7021,1.49358 -1.8556,2.8815 -2.7996,3.36969 -1.9303,0.99824 -2.0071,1.57591 -0.3625,2.72779 1.4361,1.00598 1.6345,1.01961 4.6304,0.32543 4.29,-0.99397 5.4719,-4.52447 2.4575,-7.34029 -0.9553,-0.89243 -1.9611,-1.62335 -2.2346,-1.62335 z m -5.7208,22.21949 c 0.14,0.005 0.294,0.0159 0.4639,0.032 2.5958,0.24705 3.0131,0.52136 2.688,1.76429 -0.1658,0.63409 -0.5867,1.11513 -0.9353,1.06856 -3.5795,-0.47318 -3.7756,-0.56992 -3.6041,-1.77453 0.1228,-0.86284 0.4082,-1.12491 1.3875,-1.09035 z m -169.4149,0.7111 c -0.4679,0 -1.0957,1.75988 -1.7476,4.89439 -0.5599,2.69157 -1.2462,5.62327 -1.5247,6.51517 -0.2785,0.89177 -0.5061,2.12537 -0.5061,2.74188 0,0.61651 -0.6026,2.4041 -1.3389,3.97188 -1.4903,3.17249 -3.0386,11.67698 -4.8445,26.61933 -0.6505,5.3831 -1.3869,10.0017 -1.6374,10.2628 -0.838,0.8737 -2.147,-7.6398 -2.6099,-16.974 -0.3945,-7.95443 0.1168,-12.83955 2.738,-26.14142 1.6845,-8.54823 1.7339,-9.13884 0.8392,-10.0335 -0.5228,-0.52283 -1.1112,-0.78894 -1.3081,-0.59194 -0.3544,0.35424 -1.6334,6.90287 -3.3582,17.19186 -1.416,8.44707 -1.7654,17.1737 -1.271,31.7815 0.475,14.0297 1.8707,25.5137 3.6003,29.6213 0.5873,1.3947 0.7596,2.8565 0.5241,4.4536 l -0.3511,2.3768 1.9142,0 c 1.8733,0 1.9206,-0.058 2.2371,-2.7291 0.7186,-6.0677 8.1613,-22.2856 11.6004,-25.2766 0.91,-0.7914 1.6554,-1.7038 1.6554,-2.0282 0,-0.3245 0.359,-0.8885 0.7982,-1.2531 0.4393,-0.3645 1.415,-1.8419 2.1692,-3.2838 0.7542,-1.4419 2.4289,-4.2133 3.7208,-6.1577 2.3587,-3.5504 2.5405,-4.8455 0.7738,-5.5235 -1.0846,-0.4162 -4.0982,2.6718 -7.3377,7.5209 -1.0789,1.6149 -2.1499,2.9367 -2.3806,2.9367 -1.2276,0 -1.1389,-10.172 0.1269,-14.541 1.4456,-4.99005 5.0792,-14.22294 7.1327,-18.12202 2.5096,-4.76513 2.8713,-7.24326 1.1864,-8.14493 -0.8912,-0.47691 -1.2705,-0.30813 -2.1614,0.95966 -1.4412,2.05079 -4.7322,10.5288 -6.241,16.07845 -0.669,2.46079 -2.3146,8.12414 -3.6567,12.58444 -1.3421,4.4603 -2.7239,9.9969 -3.0712,12.3039 -0.3472,2.3071 -0.9967,5.7281 -1.4427,7.6017 -0.446,1.8736 -0.6583,4.1704 -0.4715,5.1045 0.3656,1.8279 -0.6078,4.314 -1.4785,3.7758 -0.786,-0.4858 -0.6864,-3.2152 0.5868,-16.2027 0.6333,-6.4597 2.0791,-16.5261 3.2134,-22.37067 1.1342,-5.84445 2.0923,-11.38229 2.1294,-12.30515 0.037,-0.92273 0.779,-4.85132 1.6477,-8.73047 1.5552,-6.94403 1.5863,-8.88676 0.1448,-8.88676 z m 168.7884,5.66698 c 1.4635,0.06 2.4979,0.92746 2.1154,1.92444 -0.3445,0.89761 -0.3311,0.89724 -2.8803,0.16272 -2.1663,-0.62419 -2.1016,-1.80025 0.1141,-2.06154 0.2237,-0.0264 0.4417,-0.0342 0.6508,-0.0257 z m -2.6176,6.13464 c 0.3352,-0.009 0.7553,0.0104 1.2877,0.0487 2.2777,0.1638 2.4203,0.2737 2.4203,1.85269 0,1.39132 -0.2385,1.69375 -1.3979,1.77326 -1.4805,0.10155 -3.9344,-0.46407 -4.05,-0.93403 -0.038,-0.15384 0.083,-0.86113 0.269,-1.5721 0.2231,-0.85323 0.4654,-1.14206 1.4709,-1.16851 z m -1.385,6.47033 c 0.4204,-0.0117 0.9045,0.0245 1.458,0.10378 2.5037,0.3585 2.5176,0.37348 2.6907,2.77904 0.096,1.33011 -0.1241,2.77727 -0.4882,3.21594 -0.7805,0.94045 -0.7035,0.94329 -3.7413,-0.13197 -2.1312,-0.7544 -2.3767,-1.02828 -2.3767,-2.64578 0,-2.31424 0.6357,-3.27045 2.4575,-3.32101 z m -1.5568,8.01423 c 3.7255,0 5.1674,2.05714 3.5542,5.0712 -0.3184,0.59493 -0.7589,1.05709 -0.9788,1.02757 -0.4512,-0.0614 -4.7624,-1.73871 -5.0815,-1.97697 -0.1139,-0.085 -0.039,-1.04614 0.1653,-2.13714 0.3425,-1.82578 0.5285,-1.98466 2.3408,-1.98466 z m -235.6595,0.0269 c -0.5621,0.0355 -5.1803,5.83748 -5.1481,6.46776 0.031,0.60497 5.567,-5.40255 5.567,-6.0411 0,-0.24902 -0.1883,-0.44109 -0.4189,-0.42666 z m 234.7473,7.27495 c 0.7993,0.0155 1.647,0.22948 2.5522,0.64191 1.4131,0.64381 1.4595,0.80151 1.0917,3.77461 -0.2112,1.7066 -0.5795,3.3555 -0.8187,3.6631 -0.2391,0.3076 -0.6085,1.7547 -0.82,3.2159 -0.427,2.9506 -0.6151,3.0214 -4.2308,1.617 -1.9518,-0.7582 -2.4733,-1.222 -2.3215,-2.0667 0.2706,-1.5064 1.0921,-1.9095 3.9065,-1.9193 3.0564,-0.011 2.8813,-1.037 -0.3613,-2.1179 -2.2746,-0.7583 -2.3421,-0.8512 -2.3421,-3.2314 0,-1.8502 0.2645,-2.5917 1.0813,-3.02884 0.7123,-0.3812 1.4634,-0.56383 2.2627,-0.54838 z m 187.464,3.41712 c -0.9597,0.049 -1.3978,0.9457 -3.2531,5.6157 -2.5258,6.3582 -7.1141,20.1717 -9.4351,28.408 -2.1664,7.6874 -4.1833,15.1394 -4.1833,15.457 0,0.1507 0.7974,0.195 1.7719,0.099 1.6831,-0.1665 1.8068,-0.3426 2.4613,-3.5299 0.9883,-4.8124 8.2312,-26.6 11.7978,-35.4881 3.3114,-8.2525 3.5594,-10.2736 1.2902,-10.5383 -0.164,-0.019 -0.3126,-0.03 -0.4497,-0.023 z m -22.1414,5.2723 c -0.2203,-0 -0.415,0.073 -0.5983,0.2256 -0.9131,0.7579 -1.432,9.5846 -1.6912,28.8102 l -0.2063,15.3764 3.0443,0 c 3.3021,0 3.0342,0.3154 3.3094,-3.9156 0.432,-6.6394 1.0862,-12.6782 1.7451,-16.122 1.0435,-5.4539 1.0152,-7.8734 -0.096,-8.3 -0.4853,-0.1861 -1.2524,0.03 -1.7041,0.4818 -1.1006,1.1006 -2.4322,6.2691 -2.4408,9.4697 -0.01,3.2724 -0.5607,6.0822 -1.1953,6.0822 -0.922,0 -0.5416,-5.5671 1.5643,-22.8858 l 0.9136,-7.5043 -1.2761,-1.0327 c -0.5642,-0.4568 -1.0012,-0.6808 -1.3685,-0.6855 z m -412.1675,4.5152 c -0.2513,-0.011 -0.7605,0.4175 -1.5311,1.3056 -2.3036,2.6545 -6.2302,10.9678 -11.3609,24.0504 -3.6989,9.4317 -4.6897,11.8413 -5.8002,14.1207 -0.11242,0.2306 0.1852,0.4203 0.6611,0.4203 1.4017,0 10.8705,-19.2451 12.933,-26.2862 0.4054,-1.3843 1.7659,-4.6932 3.0237,-7.3532 1.9283,-4.0778 2.6271,-6.2329 2.0744,-6.2576 z m 242.1427,3.0276 c 0.4867,-0.035 1.2419,0.066 2.4408,0.2306 2.9073,0.3998 3.374,1.0207 2.4933,3.3159 -0.3949,1.0289 -0.8311,1.0411 -3.8553,0.1089 -1.8713,-0.5767 -2.2129,-0.9079 -2.0859,-2.0205 0.1304,-1.1419 0.1959,-1.5767 1.0071,-1.6349 z m -1.2095,7.5171 c 1.438,-0.02 4.354,0.2843 4.7163,0.5855 0.105,0.087 0.04,0.6325 -0.1435,1.2121 -0.2673,0.8419 -0.9068,1.0646 -3.1762,1.098 -2.6373,0.04 -2.8178,-0.043 -2.5203,-1.1518 0.1763,-0.657 0.3215,-1.3793 0.328,-1.6041 0,-0.091 0.3164,-0.1331 0.7957,-0.1397 z m 162.6974,13.7773 c -1.2211,0.022 -1.3931,2.2258 -0.7021,8.2026 0.3798,3.2859 0.6955,6.2883 0.7021,6.6728 0.01,0.3845 0.5937,0.6996 1.3056,0.6996 1.9005,0 2.0607,-1.6174 0.8828,-8.9483 -0.7893,-4.912 -1.2461,-6.4704 -1.9309,-6.6023 -0.091,-0.017 -0.1761,-0.026 -0.2575,-0.024 z m 8.4998,5.8823 c 0.083,-0.016 0.1939,0.1116 0.3382,0.36 0.3994,0.6868 0.4129,1.6774 0.041,3.075 -0.5469,2.0542 -0.5486,2.0503 -0.5893,-1.0135 -0.022,-1.6579 0.027,-2.3863 0.2101,-2.4215 z"
       id="path3384"
       inkscape:connector-curvature="0" />
  </g>
</svg>
