<?xml version="1.0" encoding="UTF-8" standalone="no"?>
<svg
   xmlns:dc="http://purl.org/dc/elements/1.1/"
   xmlns:cc="http://creativecommons.org/ns#"
   xmlns:rdf="http://www.w3.org/1999/02/22-rdf-syntax-ns#"
   xmlns:svg="http://www.w3.org/2000/svg"
   xmlns="http://www.w3.org/2000/svg"
   xmlns:xlink="http://www.w3.org/1999/xlink"
   xmlns:sodipodi="http://sodipodi.sourceforge.net/DTD/sodipodi-0.dtd"
   xmlns:inkscape="http://www.inkscape.org/namespaces/inkscape"
   id="svg2"
   height="96"
   width="96"
   version="1.1"
   sodipodi:docname="avatat.svg"
   inkscape:version="0.92.0 r15299"
   inkscape:export-filename="/home/ars/git/tamiya/evt/public/img/addfriend.png"
   inkscape:export-xdpi="91"
   inkscape:export-ydpi="91">
  <sodipodi:namedview
     pagecolor="#ffffff"
     bordercolor="#666666"
     borderopacity="1"
     objecttolerance="10"
     gridtolerance="10"
     guidetolerance="10"
     inkscape:pageopacity="0"
     inkscape:pageshadow="2"
     inkscape:window-width="1366"
     inkscape:window-height="724"
     id="namedview56"
     showgrid="false"
     inkscape:snap-page="true"
     inkscape:zoom="2.4583333"
     inkscape:cx="-2.0230633"
     inkscape:cy="45.689325"
     inkscape:window-x="0"
     inkscape:window-y="0"
     inkscape:window-maximized="1"
     inkscape:current-layer="svg2" />
  <metadata
     id="metadata79">
    <rdf:RDF>
      <cc:Work
         rdf:about="">
        <dc:format>image/svg+xml</dc:format>
        <dc:type
           rdf:resource="http://purl.org/dc/dcmitype/StillImage" />
        <dc:title />
      </cc:Work>
    </rdf:RDF>
  </metadata>
  <defs
     id="defs4">
    <linearGradient
       id="linearGradient3688-7-7-0">
      <stop
         id="stop7"
         stop-color="#e4aa70"
         offset="0" />
      <stop
         id="stop9"
         stop-color="#eec8a2"
         offset="1" />
    </linearGradient>
    <linearGradient
       id="linearGradient4225"
       y2="83.937"
       gradientUnits="userSpaceOnUse"
       y1="11.291"
       gradientTransform="matrix(1.107 0 0 1.0698 -5.658 -5.03)"
       x2="64.54"
       x1="66.01">
      <stop
         id="stop12"
         stop-color="#419cff"
         offset="0" />
      <stop
         id="stop14"
         stop-color="#0045a8"
         offset="1" />
    </linearGradient>
    <linearGradient
       id="linearGradient4303"
       y2="22.929"
       gradientUnits="userSpaceOnUse"
       y1="27.07"
       x2="16.929"
       x1="20.5"
       gradientTransform="matrix(2.0549112,0,0,2.2835534,-159.01338,-25.020528)">
      <stop
         id="stop17"
         stop-color="#6f531e"
         offset="0" />
      <stop
         id="stop19"
         stop-color="#d1a554"
         offset="1" />
    </linearGradient>
    <radialGradient
       id="radialGradient4316"
       cx="13.244"
       gradientUnits="userSpaceOnUse"
       cy="9.01"
       r="9.175"
       gradientTransform="matrix(-1.9190942,0.68146457,-0.32260242,-1.1219369,-100.74788,-4.3802289)">
      <stop
         id="stop22"
         stop-color="#b29e71"
         offset="0" />
      <stop
         id="stop24"
         stop-color="#73561f"
         offset="1" />
    </radialGradient>
    <radialGradient
       id="radialGradient4339"
       cx="30.13"
       gradientUnits="userSpaceOnUse"
       cy="39.571"
       r="15.311"
       gradientTransform="matrix(-0.13470577,1.2001509,1.6764757,0.23236403,-188.68816,1.7091621)">
      <stop
         id="stop27"
         stop-color="#91d3ff"
         offset="0" />
      <stop
         id="stop29"
         stop-color="#0596ff"
         offset="1" />
    </radialGradient>
    <linearGradient
       id="linearGradient4342"
       y2="11.961"
       xlink:href="#linearGradient3688-7-7-0"
       gradientUnits="userSpaceOnUse"
       y1="27.961"
       gradientTransform="matrix(-1.5572036,0,0,1.7304815,-86.598222,-13.49459)"
       x2="22.04"
       x1="25.4" />
    <radialGradient
       id="radialGradient4364"
       cx="24.794"
       gradientUnits="userSpaceOnUse"
       cy="6.602"
       r="10.198"
       gradientTransform="matrix(0,0.67855032,-1.2569246,0,-60.188543,-4.8552464)">
      <stop
         id="stop33"
         stop-color="#707070"
         offset="0" />
      <stop
         id="stop35"
         stop-color="#252525"
         offset="1" />
    </radialGradient>
    <radialGradient
       id="radialGradient4368"
       cx="30.13"
       gradientUnits="userSpaceOnUse"
       cy="39.571"
       r="15.311"
       gradientTransform="matrix(0.13470577,1.2001509,-1.6764757,0.23236403,-7.540935,20.290057)">
      <stop
         id="stop38"
         stop-color="#c3ff82"
         offset="0" />
      <stop
         id="stop40"
         stop-color="#4a8f00"
         offset="1" />
    </radialGradient>
    <linearGradient
       id="linearGradient4371"
       y2="11.961"
       xlink:href="#linearGradient3688-7-7-0"
       gradientUnits="userSpaceOnUse"
       y1="27.961"
       gradientTransform="matrix(1.5572036,0,0,1.7304815,-109.6321,5.0863048)"
       x2="22.04"
       x1="25.4" />
    <linearGradient
       id="linearGradient14237"
       y2="96.54"
       gradientUnits="userSpaceOnUse"
       x2="50.708"
       y1="81.682"
       x1="50.708">
      <stop
         id="stop14233"
         offset="0" />
      <stop
         id="stop14235"
         style="stop-opacity:0"
         offset="1" />
    </linearGradient>
    <linearGradient
       id="linearGradient14245"
       y2="76.72"
       gradientUnits="userSpaceOnUse"
       x2="49.877"
       y1="87.938"
       x1="49.877">
      <stop
         id="stop14241"
         style="stop-color:#fff"
         offset="0" />
      <stop
         id="stop14243"
         style="stop-color:#fff;stop-opacity:0"
         offset="1" />
    </linearGradient>
    <clipPath
       id="clipPath8838"
       clipPathUnits="userSpaceOnUse">
      <path
         id="path8840"
         d="m23.484 14.625c-5.3794 0-9.6941 4.2391-9.6941 9.4783v47.958c0 5.2397 4.3145 9.454 9.6941 9.454h49.254c5.3794 0 9.6941-4.2144 9.6941-9.454v-47.958c0-5.2396-4.3145-9.4783-9.6941-9.4783h-49.254z"
         style="fill:url(#linearGradient8842)" />
    </clipPath>
    <linearGradient
       id="linearGradient8842"
       y2="83.937"
       xlink:href="#linearGradient4225"
       gradientUnits="userSpaceOnUse"
       x2="64.54"
       gradientTransform="matrix(.89659 0 0 .84065 4.5247 6.4216)"
       y1="11.291"
       x1="66.01" />
  </defs>
  <rect
     style="opacity:1;fill:#f2f2f2;fill-opacity:1;fill-rule:nonzero;stroke:none;stroke-width:18.40200043;stroke-linecap:square;stroke-linejoin:miter;stroke-miterlimit:4;stroke-dasharray:none;stroke-opacity:0.40454544;paint-order:markers fill stroke"
     id="rect4535"
     width="96"
     height="96"
     x="-127.72881"
     y="6.1016951"
     inkscape:export-xdpi="281.25"
     inkscape:export-ydpi="281.25" />
  <path
     style="fill:#ffccaa;stroke-width:1.46341312"
     d="m 125.31409,5.0067266 c -8.15209,0.2387002 -14.5198,6.7651844 -17.07631,9.2119534 0,0 -0.0785,0.997325 3.48868,2.040765 0.33319,0.02137 0.61662,0.03109 0.93944,0.05016 -9.09918,0.896548 -4.14308,36.743672 1.81959,36.448776 h 3.4978 l -0.0752,2.44436 c -4.4e-4,-0.02075 4.5e-4,-0.04081 0,-0.06156 0,0 -6.61131,2.172597 -8.92009,5.736948 -3.39261,5.2377 -2.84234,10.432841 -3.29943,17.824215 -0.38753,6.266847 25.58472,17.157968 52.1205,9.882328 2.66266,-0.730074 2.13678,-14.911633 -0.82315,-20.81582 -4.51608,-9.009306 -21.6002,-17.653202 -21.6002,-17.653202 -0.0311,0.05139 -0.058,0.103635 -0.0889,0.155054 l 0.0935,-0.542685 -0.33975,-9.154948 4.60142,-5.554533 c 0,0 0.30832,-1.182671 0.5176,-2.640455 0.0197,0.683343 0.0308,1.413793 0.0205,2.248263 0,0 3.41859,-10.755017 3.30627,-13.674276 -0.0984,-2.558382 -2.02024,-7.346761 -2.02024,-7.346761 -5.73628,-6.6215506 -11.27071,-8.7418012 -16.16196,-8.5985824 z m 8.87676,24.2725814 c 0.0165,0.187763 0.0335,0.326252 0.0502,0.519883 l -0.10032,0.104888 c 0,0 0.0273,-0.338513 0.0502,-0.624771 z m -3.88543,31.033334 c -0.1287,0.311778 -0.26243,0.622451 -0.38763,0.934877 l -1.87888,0.04332 c 0.77459,-0.275212 1.53032,-0.603727 2.26651,-0.9782 z m -12.90814,24.254341 1.01241,0.597409 -1.02153,-0.282744 c 0.002,-0.108482 0.007,-0.206408 0.009,-0.314665 z"
     id="path59"
     inkscape:connector-curvature="0" />
  <path
     style="fill:#ffffff;stroke-width:2.1662178"
     d="m -75.575171,11.171721 c -7.01385,-0.02776 -14.82894,2.628712 -17.50391,6.939453 -0.91047,1.467308 -11.145019,20.685301 0.26172,33.179688 0.26482,0.290074 0.60392,0.542301 0.9707,0.777343 -4.62247,2.765946 -11.917299,7.717115 -14.496089,12.861329 -2.53537,5.057312 -2.98582,17.204722 -0.70508,17.830078 22.729589,6.232049 44.976479,-3.09689 44.644529,-8.464844 -0.39153,-6.331185 0.07982,-10.781154 -2.82617,-15.267578 -0.82302,-1.270599 -2.28138,-2.319416 -3.70703,-3.128906 a 6.3114543,8.3187571 0 0 0 0.11328,0.0078 6.3114543,8.3187571 0 0 0 6.3125,-8.318359 6.3114543,8.3187571 0 0 0 -2.38672,-6.503906 c 1.37459,-7.983233 1.20303,-17.721886 -2.27344,-19.839845 1.53563,-0.162804 3.00045,-0.419314 4.29492,-0.910156 0.52836,-6.423448 -5.68537,-9.134351 -12.69921,-9.162109 z m -14.8125,18.574219 c 0.1534,0.02252 0.3192,0.09329 0.49218,0.185547 -0.39453,-0.04614 -0.83447,-0.05588 -1.1914,0.05859 0.20296,-0.199885 0.43514,-0.282914 0.69922,-0.24414 z m 3.54101,1.730469 c 0.03911,0.59382 0.07422,1.019531 0.07422,1.019531 l -0.1543,-0.160156 c 0.02433,-0.28961 0.04548,-0.58549 0.08008,-0.859375 z m -5.13867,2.800781 c 0.15712,1.266702 0.40194,2.240093 0.45508,2.443359 -0.16035,-0.123109 -0.31233,-0.260091 -0.47852,-0.373047 -0.0096,-0.775852 0.0028,-1.446564 0.02344,-2.070312 z m 19.10937,19.683594 a 6.3114543,8.3187571 0 0 0 0.23633,0.238281 c -0.04258,-0.0146 -0.23047,-0.08594 -0.23047,-0.08594 -2.9e-4,0.01383 3e-4,0.02719 0,0.04102 z m -10.61328,4.580078 c 0.63133,0.32126 1.27905,0.603814 1.94336,0.839843 l -1.61133,-0.03711 c -0.10741,-0.26805 -0.22161,-0.535241 -0.33203,-0.802733 z m 11.05664,20.779297 c 0.002,0.09206 0.0059,0.175328 0.0078,0.267578 l -0.87305,0.242187 z"
     id="path67"
     inkscape:connector-curvature="0"
     inkscape:export-xdpi="281.25"
     inkscape:export-ydpi="281.25" />
  <path
     inkscape:connector-curvature="0"
     id="path4570"
     d="m 44.364937,5.0067266 c -8.15209,0.2387002 -14.5198,6.7651844 -17.07631,9.2119534 0,0 -0.0785,0.997325 3.48868,2.040765 0.33319,0.02137 0.61662,0.03109 0.93944,0.05016 -9.09918,0.896548 -4.14308,36.743672 1.81959,36.448776 h 3.4978 l -0.0752,2.44436 c -4.4e-4,-0.02075 4.5e-4,-0.04081 0,-0.06156 0,0 -6.61131,2.172597 -8.92009,5.736948 -3.39261,5.2377 -2.84234,10.432841 -3.29943,17.824215 -0.38753,6.266847 25.58472,17.157968 52.1205,9.882328 2.66266,-0.730074 2.13678,-14.911633 -0.82315,-20.81582 -4.51608,-9.009306 -21.6002,-17.653202 -21.6002,-17.653202 -0.0311,0.05139 -0.058,0.103635 -0.0889,0.155054 l 0.0935,-0.542685 -0.33975,-9.154948 4.60142,-5.554533 c 0,0 0.30832,-1.182671 0.5176,-2.640455 0.0197,0.683343 0.0308,1.413793 0.0205,2.248263 0,0 3.41859,-10.755017 3.30627,-13.674276 -0.0984,-2.558382 -2.02024,-7.346761 -2.02024,-7.346761 -5.73628,-6.6215506 -11.27071,-8.7418012 -16.16196,-8.5985824 z m 8.87676,24.2725814 c 0.0165,0.187763 0.0335,0.326252 0.0502,0.519883 l -0.10032,0.104888 c 0,0 0.0273,-0.338513 0.0502,-0.624771 z m -3.88543,31.033334 c -0.1287,0.311778 -0.26243,0.622451 -0.38763,0.934877 l -1.87888,0.04332 c 0.77459,-0.275212 1.53032,-0.603727 2.26651,-0.9782 z m -12.90814,24.254341 1.01241,0.597409 -1.02153,-0.282744 c 0.002,-0.108482 0.007,-0.206408 0.009,-0.314665 z"
     style="fill:#808080;stroke-width:1.46341312" />
</svg>
